<svg xmlns="http://www.w3.org/2000/svg" viewBox="0 0 500 500"><defs><style>.cls-1{fill:#413e63;}.cls-2{opacity:0.3;}.cls-15,.cls-16,.cls-3{fill:#f3eac7;}.cls-4{fill:#514e78;}.cls-5{fill:#fcb82e;}.cls-6{fill:#f58a28;}.cls-7{fill:#f05a28;}.cls-8{fill:#fdfadb;}.cls-9{fill:#e2d1a2;}.cls-10{fill:#fab217;}.cls-11{fill:#3c2a34;}.cls-12{fill:#ffcc05;}.cls-13{fill:#82b6a0;}.cls-14{fill:#4e857a;}.cls-15{opacity:0.5;}.cls-16{font-size:10.91px;}.cls-16,.cls-17{font-family:BebasNeueBold;}.cls-17{font-size:28.68px;}.cls-17,.cls-18{fill:#fff;}.cls-18{font-size:29.85px;font-family:BebasNeueBook;}.cls-19{letter-spacing:-0.01em;}</style></defs><title>blockchain</title><g id="BACKGROUND"><rect class="cls-1" width="500" height="500"/></g><g id="OBJECTS"><g class="cls-2"><path class="cls-3" d="M387.2,250.8H323.4a1,1,0,0,1-1-1,.9.9,0,0,1,1-1h63.8a.9.9,0,0,1,1,1A1,1,0,0,1,387.2,250.8Z"/><path class="cls-3" d="M176.6,250.8H112.8a1,1,0,0,1-1-1,.9.9,0,0,1,1-1h63.8a.9.9,0,0,1,1,1A1,1,0,0,1,176.6,250.8Z"/><path class="cls-3" d="M303.3,429.9a1.1,1.1,0,0,1-1-1V366.8L279.5,344a1.1,1.1,0,0,1-.3-.7V287.7a1,1,0,0,1,2,0v55.2L304,365.7a.9.9,0,0,1,.3.7v62.5A1,1,0,0,1,303.3,429.9Z"/><path class="cls-3" d="M280.1,418.9a1,1,0,0,1-1-1V393.4L265,379.3a.8.8,0,0,1-.3-.7v-79a1.1,1.1,0,0,1,1-1,1,1,0,0,1,1,1v78.6l14.1,14.1a.9.9,0,0,1,.3.7v24.9A1.1,1.1,0,0,1,280.1,418.9Z"/><path class="cls-3" d="M451.4,384.2a1.1,1.1,0,0,1-.7-.3l-47.2-47.2h-51a.9.9,0,0,1-.7-.3l-31.7-31.7a1,1,0,0,1,1.4-1.4l31.4,31.4H404a1.1,1.1,0,0,1,.7.3l47.4,47.5a1,1,0,0,1,0,1.4A.9.9,0,0,1,451.4,384.2Z"/><path class="cls-3" d="M350.4,377.3a.7.7,0,0,1-.6-.2L312,349.7a.9.9,0,0,1-.4-.8V287.8a.9.9,0,0,1,1-1,1,1,0,0,1,1,1v60.6L351,375.5a1,1,0,0,1-.6,1.8Z"/><path class="cls-3" d="M265.7,189.3a1.1,1.1,0,0,1-1-1V125.4a.9.9,0,0,1,.3-.7l19-19V67.6a.9.9,0,0,1,1-1,1,1,0,0,1,1,1v38.6a1.1,1.1,0,0,1-.3.7l-19,18.9v62.5A1,1,0,0,1,265.7,189.3Z"/><path class="cls-3" d="M312.6,203.5a.9.9,0,0,1-1-1V157a.9.9,0,0,1,.3-.7L359.2,109a1,1,0,0,1,1.4,1.4l-47,47v45.1A1,1,0,0,1,312.6,203.5Z"/><path class="cls-3" d="M441.4,127.6a5.1,5.1,0,0,1-5.1-5.1,5,5,0,0,1,5.1-5,5,5,0,0,1,5,5A5,5,0,0,1,441.4,127.6Zm0-8.1a3,3,0,0,0-3.1,3,3.1,3.1,0,1,0,6.1,0A3,3,0,0,0,441.4,119.5Z"/><path class="cls-3" d="M465.2,127.4a5.1,5.1,0,0,1,0-10.1,5.1,5.1,0,1,1,0,10.1Zm0-8.1a3.1,3.1,0,0,0,0,6.1,3.1,3.1,0,1,0,0-6.1Z"/><path class="cls-3" d="M285,68.1a5,5,0,0,1-5.1-5A5.1,5.1,0,0,1,285,58a5,5,0,0,1,5,5.1A5,5,0,0,1,285,68.1Zm0-8.1a3.1,3.1,0,0,0-3.1,3.1,3,3,0,0,0,3.1,3,2.9,2.9,0,0,0,3-3A3,3,0,0,0,285,60Z"/><path class="cls-3" d="M306.1,129.6a5.1,5.1,0,0,1-5.1-5.1,5.1,5.1,0,0,1,10.1,0A5.1,5.1,0,0,1,306.1,129.6Zm0-8.1a3,3,0,0,0-3.1,3,3.1,3.1,0,1,0,6.1,0A3,3,0,0,0,306.1,121.5Z"/><path class="cls-3" d="M374.3,206.5a5,5,0,0,1-5-5,5,5,0,0,1,5-5.1,5.1,5.1,0,0,1,5.1,5.1A5,5,0,0,1,374.3,206.5Zm0-8.1a3,3,0,0,0-3,3.1,2.9,2.9,0,0,0,3,3,3,3,0,0,0,3.1-3A3.1,3.1,0,0,0,374.3,198.4Z"/><path class="cls-3" d="M463.2,322.4a5.1,5.1,0,1,1,0-10.1,5.1,5.1,0,0,1,0,10.1Zm0-8.1a3.1,3.1,0,1,0,0,6.1,3.1,3.1,0,0,0,0-6.1Z"/><path class="cls-3" d="M455.5,391.8a5.1,5.1,0,1,1,0-10.1,5.1,5.1,0,0,1,0,10.1Zm0-8.1a3.1,3.1,0,1,0,0,6.1,3.1,3.1,0,0,0,0-6.1Z"/><path class="cls-3" d="M303.3,438a5,5,0,0,1-5-5.1,5,5,0,0,1,5-5,5,5,0,0,1,5.1,5A5.1,5.1,0,0,1,303.3,438Zm0-8.1a2.9,2.9,0,0,0-3,3,3,3,0,0,0,3,3.1,3.1,3.1,0,0,0,3.1-3.1A3,3,0,0,0,303.3,429.9Z"/><path class="cls-3" d="M280.1,427a5.1,5.1,0,0,1-5.1-5.1,5,5,0,0,1,5.1-5,5,5,0,0,1,5,5A5,5,0,0,1,280.1,427Zm0-8.1a3,3,0,0,0-3.1,3,3.1,3.1,0,0,0,3.1,3.1,3,3,0,0,0,3-3.1A2.9,2.9,0,0,0,280.1,418.9Z"/><path class="cls-3" d="M281,189.3a1,1,0,0,1-1-1V148.8a1.1,1.1,0,0,1,.3-.7l22-22a1,1,0,0,1,1.4,1.4L282,149.3v39A1.1,1.1,0,0,1,281,189.3Z"/><path class="cls-3" d="M319.1,198.1a.9.9,0,0,1-.7-.3,1,1,0,0,1,0-1.4l32.8-32.9a1.1,1.1,0,0,1,.7-.3h48.7L438,125.8a1,1,0,0,1,1.4,1.4l-37.7,37.7a.9.9,0,0,1-.7.3H352.3l-32.5,32.6A1.1,1.1,0,0,1,319.1,198.1Z"/><path class="cls-3" d="M319.9,220.8a1.1,1.1,0,0,1-.7-.3,1,1,0,0,1,0-1.4l37.5-37.5a1.1,1.1,0,0,1,.7-.3H403l57.5-57.5a1,1,0,0,1,1.4,1.4L404.1,183a.9.9,0,0,1-.7.3H357.8l-37.2,37.2A.9.9,0,0,1,319.9,220.8Z"/><path class="cls-3" d="M458.4,318.3H395.8l-.6-.2-50.4-44.5H323.4a1,1,0,0,1-1-1,1.1,1.1,0,0,1,1-1h21.7a.9.9,0,0,1,.7.3l50.4,44.4h62.2a1,1,0,0,1,1,1A.9.9,0,0,1,458.4,318.3Z"/><path class="cls-3" d="M345,231.7H319.1a1,1,0,0,1,0-2h25.5l25.9-25.9a1,1,0,0,1,1.4,1.4l-26.1,26.2A1.1,1.1,0,0,1,345,231.7Z"/><path class="cls-3" d="M196.7,429.9a1,1,0,0,1-1-1V366.4a.9.9,0,0,1,.3-.7l22.8-22.8V287.7a1,1,0,0,1,2,0v55.6a1.1,1.1,0,0,1-.3.7l-22.8,22.8v62.1A1.1,1.1,0,0,1,196.7,429.9Z"/><path class="cls-3" d="M219.9,418.9a1.1,1.1,0,0,1-1-1V393a.9.9,0,0,1,.3-.7l14.1-14.1V299.6a1,1,0,0,1,1-1,1.1,1.1,0,0,1,1,1v79a.8.8,0,0,1-.3.7l-14.1,14.1v24.5A1,1,0,0,1,219.9,418.9Z"/><path class="cls-3" d="M48.6,384.2a.9.9,0,0,1-.7-.3,1,1,0,0,1,0-1.4L95.3,335a1.1,1.1,0,0,1,.7-.3h51.1l31.4-31.4a1,1,0,0,1,1.4,1.4l-31.7,31.7a.9.9,0,0,1-.7.3h-51L49.3,383.9A1.1,1.1,0,0,1,48.6,384.2Z"/><path class="cls-3" d="M149.6,377.3a1,1,0,0,1-.6-1.8l37.4-27.1V287.8a1,1,0,0,1,1-1,.9.9,0,0,1,1,1v61.1a.9.9,0,0,1-.4.8l-37.8,27.4A.7.7,0,0,1,149.6,377.3Z"/><path class="cls-3" d="M234.3,189.3a1,1,0,0,1-1-1V125.8l-19-18.9a1.1,1.1,0,0,1-.3-.7V67.6a1,1,0,0,1,1-1,.9.9,0,0,1,1,1v38.1l19,19a.9.9,0,0,1,.3.7v62.9A1.1,1.1,0,0,1,234.3,189.3Z"/><path class="cls-3" d="M187.4,203.5a1,1,0,0,1-1-1V157.4l-47-47a1,1,0,0,1,1.4-1.4l47.3,47.3a.9.9,0,0,1,.3.7v45.5A.9.9,0,0,1,187.4,203.5Z"/><path class="cls-3" d="M58.6,127.6a5,5,0,0,1-5-5.1,5,5,0,0,1,5-5,5,5,0,0,1,5.1,5A5.1,5.1,0,0,1,58.6,127.6Zm0-8.1a3,3,0,0,0-3,3,3.1,3.1,0,1,0,6.1,0A3,3,0,0,0,58.6,119.5Z"/><path class="cls-3" d="M34.8,127.4a5.1,5.1,0,1,1,0-10.1,5.1,5.1,0,0,1,0,10.1Zm0-8.1a3.1,3.1,0,1,0,3,3A3.1,3.1,0,0,0,34.8,119.3Z"/><path class="cls-3" d="M215,68.1a5,5,0,0,1-5-5,5,5,0,0,1,5-5.1,5.1,5.1,0,0,1,5.1,5.1A5,5,0,0,1,215,68.1Zm0-8.1a3,3,0,0,0-3,3.1,2.9,2.9,0,0,0,3,3,3,3,0,0,0,3.1-3A3.1,3.1,0,0,0,215,60Z"/><path class="cls-3" d="M193.9,129.6a5.1,5.1,0,0,1-5-5.1,5.1,5.1,0,0,1,10.1,0A5.1,5.1,0,0,1,193.9,129.6Zm0-8.1a3,3,0,0,0-3,3,3.1,3.1,0,1,0,6.1,0A3,3,0,0,0,193.9,121.5Z"/><path class="cls-3" d="M125.7,206.5a5,5,0,0,1-5.1-5,5.1,5.1,0,0,1,5.1-5.1,5,5,0,0,1,5,5.1A5,5,0,0,1,125.7,206.5Zm0-8.1a3.1,3.1,0,0,0-3.1,3.1,3,3,0,0,0,3.1,3,2.9,2.9,0,0,0,3-3A3,3,0,0,0,125.7,198.4Z"/><path class="cls-3" d="M36.8,322.4a5.1,5.1,0,0,1,0-10.1,5.1,5.1,0,1,1,0,10.1Zm0-8.1a3.1,3.1,0,0,0,0,6.1,3.1,3.1,0,1,0,0-6.1Z"/><path class="cls-3" d="M44.5,391.8a5.1,5.1,0,0,1,0-10.1,5.1,5.1,0,1,1,0,10.1Zm0-8.1a3.1,3.1,0,0,0,0,6.1,3.1,3.1,0,1,0,0-6.1Z"/><path class="cls-3" d="M196.7,438a5.1,5.1,0,0,1-5.1-5.1,5,5,0,0,1,5.1-5,5,5,0,0,1,5,5A5,5,0,0,1,196.7,438Zm0-8.1a3,3,0,0,0-3.1,3,3.1,3.1,0,0,0,3.1,3.1,3,3,0,0,0,3-3.1A2.9,2.9,0,0,0,196.7,429.9Z"/><path class="cls-3" d="M219.9,427a5,5,0,0,1-5-5.1,5,5,0,0,1,5-5,5,5,0,0,1,5.1,5A5.1,5.1,0,0,1,219.9,427Zm0-8.1a2.9,2.9,0,0,0-3,3,3,3,0,0,0,3,3.1,3.1,3.1,0,0,0,3.1-3.1A3,3,0,0,0,219.9,418.9Z"/><path class="cls-3" d="M219,189.3a1.1,1.1,0,0,1-1-1v-39l-21.7-21.8a1,1,0,0,1,1.4-1.4l22,22a1.1,1.1,0,0,1,.3.7v39.5A1,1,0,0,1,219,189.3Z"/><path class="cls-3" d="M180.9,198.1a1.1,1.1,0,0,1-.7-.3l-32.5-32.6H99a.9.9,0,0,1-.7-.3L60.6,127.2a1,1,0,1,1,1.4-1.4l37.4,37.4h48.7a1.1,1.1,0,0,1,.7.3l32.8,32.9a1,1,0,0,1,0,1.4A.9.9,0,0,1,180.9,198.1Z"/><path class="cls-3" d="M180.1,220.8a.9.9,0,0,1-.7-.3l-37.2-37.2H96.6a.9.9,0,0,1-.7-.3L38.1,125.2a1,1,0,1,1,1.4-1.4L97,181.3h45.6a1.1,1.1,0,0,1,.7.3l37.5,37.5a1,1,0,0,1,0,1.4A1.1,1.1,0,0,1,180.1,220.8Z"/><path class="cls-3" d="M104.2,318.3H41.6a.9.9,0,0,1-1-1,1,1,0,0,1,1-1h62.2l50.4-44.4a.9.9,0,0,1,.7-.3h21.7a1.1,1.1,0,0,1,1,1,1,1,0,0,1-1,1H155.2l-50.4,44.5Z"/><path class="cls-3" d="M180.9,231.7H155a1.1,1.1,0,0,1-.8-.3l-26.1-26.2a1,1,0,0,1,1.4-1.4l25.9,25.9h25.5a1,1,0,1,1,0,2Z"/><path class="cls-3" d="M250,436.7a1,1,0,0,1-1-1V283a1,1,0,0,1,2,0V435.7A1,1,0,0,1,250,436.7Z"/><path class="cls-3" d="M250,198.1a1,1,0,0,1-1-1V47.5a1,1,0,0,1,2,0V197.1A1,1,0,0,1,250,198.1Z"/><path class="cls-3" d="M250,48.5a5,5,0,1,1,5-5A5,5,0,0,1,250,48.5Zm0-8a3,3,0,1,0,3,3A2.9,2.9,0,0,0,250,40.5Z"/><path class="cls-3" d="M250,444.8a5,5,0,0,1-5-5.1,5,5,0,0,1,10,0A5,5,0,0,1,250,444.8Zm0-8.1a2.9,2.9,0,0,0-3,3,3,3,0,1,0,6,0A2.9,2.9,0,0,0,250,436.7Z"/></g><path class="cls-4" d="M464.1,244.3a46.5,46.5,0,1,0-40.5,51.8A46.5,46.5,0,0,0,464.1,244.3Z"/><path class="cls-4" d="M85.3,107a46.5,46.5,0,1,0,40.4-51.8A46.6,46.6,0,0,0,85.3,107Z"/><path class="cls-4" d="M414.7,99.3a46.5,46.5,0,1,0-40.4,51.8A46.6,46.6,0,0,0,414.7,99.3Z"/><path class="cls-4" d="M414.7,393a46.5,46.5,0,1,0-40.4,51.8A46.6,46.6,0,0,0,414.7,393Z"/><path class="cls-4" d="M85.3,400.7a46.5,46.5,0,1,0,40.4-51.8A46.6,46.6,0,0,0,85.3,400.7Z"/><path class="cls-4" d="M36.3,255.7a46.5,46.5,0,1,0,40.4-51.8A46.4,46.4,0,0,0,36.3,255.7Z"/><path class="cls-5" d="M161.2,394.8a30.4,30.4,0,1,1-30.4-30.4A30.4,30.4,0,0,1,161.2,394.8Z"/><path class="cls-6" d="M156.2,394.8a25.4,25.4,0,1,1-25.4-25.4A25.4,25.4,0,0,1,156.2,394.8Z"/><path class="cls-7" d="M156.2,394.8a25.4,25.4,0,0,0-45.8-15.1,25.3,25.3,0,0,1,43,18.2,25.2,25.2,0,0,1-4.9,15A25.3,25.3,0,0,0,156.2,394.8Z"/><path class="cls-8" d="M140.7,392.7s1.8-.8,1.8-5c-.1-6.6-6.7-6.3-6.7-6.3h-1.3v-4.1H131v4.1h-3.2v-4.1h-3.4v4.1h-7.8v3.7h5.6V404H117v3.9h7.4v4.3h3.4v-4.3H131v4.3h3.5v-4.3c3.9,0,9.7-.6,10.4-7.1S140.7,392.7,140.7,392.7Zm-12.9-7.5H132s4.2-.6,4.2,3.4-2.7,3.4-2.7,3.4h-5.7Zm7.8,19.2h-7.8v-8.5h5.8s5.8-.4,5.8,4.3A3.9,3.9,0,0,1,135.6,404.4Z"/><rect class="cls-9" x="97.8" y="72.3" width="49.2" height="59.88" transform="translate(-27.2 46.9) rotate(-19.6)"/><rect class="cls-3" x="106.2" y="67.9" width="59.9" height="49.16" transform="translate(42.6 227.9) rotate(-89.6)"/><path class="cls-10" d="M184,139.4a2.8,2.8,0,0,1-2.1-.8L166.3,123a2.9,2.9,0,0,1,4.1-4.1L186,134.5a3,3,0,0,1,0,4.1A2.7,2.7,0,0,1,184,139.4Z"/><path class="cls-3" d="M200.5,144.9a5.4,5.4,0,0,1,0,7.8h0a5.6,5.6,0,0,1-7.9,0l-16.3-16.3a5.6,5.6,0,0,1,0-7.8h0a5.6,5.6,0,0,1,7.9,0Z"/><path class="cls-11" d="M141.3,75.1a6.3,6.3,0,1,1-12.5,0,6.3,6.3,0,1,1,12.5,0Z"/><path class="cls-11" d="M139,80.9h-8a7.4,7.4,0,0,0-7.3,7.4v8.6h22.7V88.3A7.4,7.4,0,0,0,139,80.9Z"/><path class="cls-11" d="M153.1,108.4a1.3,1.3,0,0,1-1.3,1.3H118.9a1.3,1.3,0,0,1-1.4-1.3h0a1.4,1.4,0,0,1,1.4-1.4h32.9a1.3,1.3,0,0,1,1.3,1.4Z"/><path class="cls-11" d="M153.1,102.2a1.3,1.3,0,0,1-1.3,1.3H118.9a1.3,1.3,0,0,1-1.4-1.3h0a1.3,1.3,0,0,1,1.4-1.3h32.9a1.3,1.3,0,0,1,1.3,1.3Z"/><path class="cls-11" d="M153.1,114.6a1.3,1.3,0,0,1-1.3,1.3H118.9a1.3,1.3,0,0,1-1.4-1.3h0a1.3,1.3,0,0,1,1.4-1.3h32.9a1.3,1.3,0,0,1,1.3,1.3Z"/><path class="cls-10" d="M152,130.6a26.1,26.1,0,1,1,18.4-7.6A26,26,0,0,1,152,130.6Zm0-46.4a20.4,20.4,0,1,0,14.3,6A20.3,20.3,0,0,0,152,84.2Z"/><polygon class="cls-3" points="369.6 357 332.6 388.6 369.6 388.6 406.7 388.6 369.6 357"/><polygon class="cls-9" points="369.6 366.3 350.5 382.7 369.6 382.7 388.8 382.7 369.6 366.3"/><rect class="cls-3" x="364.8" y="388.6" width="9.6" height="31.38"/><rect class="cls-3" x="346.1" y="388.6" width="9.6" height="31.38"/><rect class="cls-3" x="383.6" y="388.6" width="9.6" height="31.38"/><rect class="cls-3" x="340.5" y="418.2" width="58.3" height="6.46"/><rect class="cls-3" x="335.7" y="424.6" width="67.8" height="6.46"/><path class="cls-8" d="M156.9,362.5h-1.3v-1.3a1.2,1.2,0,0,0-2.4,0v1.3h-1.3a1.2,1.2,0,0,0-1.2,1.2,1.2,1.2,0,0,0,1.2,1.3h1.3v1.2a1.2,1.2,0,1,0,2.4,0V365h1.3a1.3,1.3,0,0,0,1.3-1.3A1.2,1.2,0,0,0,156.9,362.5Z"/><path class="cls-8" d="M111.7,364.4h-1.3v-1.2a1.2,1.2,0,1,0-2.4,0v1.2h-1.3a1.2,1.2,0,0,0-1.2,1.3,1.2,1.2,0,0,0,1.2,1.2H108v1.3a1.2,1.2,0,0,0,2.4,0v-1.3h1.3a1.2,1.2,0,0,0,1.2-1.2A1.2,1.2,0,0,0,111.7,364.4Z"/><path class="cls-8" d="M100.5,418.9H99.3v-1.3a1.2,1.2,0,0,0-1.3-1.2,1.2,1.2,0,0,0-1.2,1.2v1.3H95.5a1.2,1.2,0,0,0,0,2.4h1.3v1.3a1.2,1.2,0,0,0,1.2,1.2,1.2,1.2,0,0,0,1.3-1.2v-1.3h1.2a1.2,1.2,0,1,0,0-2.4Z"/><path class="cls-8" d="M116.1,429h-1.3v-1.2a1.2,1.2,0,1,0-2.4,0V429h-1.3a1.2,1.2,0,0,0-1.2,1.3,1.2,1.2,0,0,0,1.2,1.2h1.3v1.3a1.2,1.2,0,0,0,2.4,0v-1.3h1.3a1.2,1.2,0,0,0,1.3-1.2A1.3,1.3,0,0,0,116.1,429Z"/><path class="cls-8" d="M172.3,408h-1.2v-1.3a1.3,1.3,0,0,0-1.3-1.3,1.2,1.2,0,0,0-1.2,1.3V408h-1.3a1.2,1.2,0,0,0,0,2.4h1.3v1.3a1.2,1.2,0,0,0,1.2,1.2,1.2,1.2,0,0,0,1.3-1.2v-1.3h1.2a1.2,1.2,0,1,0,0-2.4Z"/><path class="cls-8" d="M405.2,112.8h-1.3v-1.4a1.2,1.2,0,0,0-1.3-1.2,1.2,1.2,0,0,0-1.2,1.2v1.4H400a1.2,1.2,0,0,0-1.2,1.2,1.2,1.2,0,0,0,1.2,1.3h1.4v1.3a1.2,1.2,0,0,0,1.2,1.3,1.3,1.3,0,0,0,1.3-1.3v-1.3h1.3a1.3,1.3,0,0,0,1.3-1.3A1.2,1.2,0,0,0,405.2,112.8Z"/><path class="cls-8" d="M401.4,85.8H400V84.5a1.2,1.2,0,0,0-1.2-1.3,1.3,1.3,0,0,0-1.3,1.3v1.3h-1.3a1.3,1.3,0,0,0,0,2.6h1.3v1.3a1.3,1.3,0,0,0,1.3,1.3,1.2,1.2,0,0,0,1.2-1.3V88.4h1.4a1.3,1.3,0,0,0,0-2.6Z"/><path class="cls-8" d="M331.9,106.4h-1.3v-1.3a1.3,1.3,0,0,0-2.6,0v1.3h-1.3a1.3,1.3,0,0,0,0,2.6H328v1.3a1.3,1.3,0,0,0,2.6,0V109h1.3a1.3,1.3,0,1,0,0-2.6Z"/><path class="cls-10" d="M363.2,126.5c-2-2.1-6.3-3.6-11.2-3.6s-9.3,1.5-11.3,3.6h-1.2v2.7c0,3.5,5.6,6.3,12.5,6.3s12.4-2.8,12.4-6.3v-2.7Z"/><path class="cls-12" d="M364.4,126.5c0,3.5-5.6,6.3-12.4,6.3s-12.5-2.8-12.5-6.3,5.6-6.3,12.5-6.3S364.4,123,364.4,126.5Z"/><path class="cls-10" d="M363.2,121.1c-2-2.2-6.3-3.6-11.2-3.6s-9.3,1.4-11.3,3.6h-1.2v2.7c0,3.5,5.6,6.3,12.5,6.3s12.4-2.8,12.4-6.3v-2.7Z"/><path class="cls-12" d="M364.4,121.1c0,3.5-5.6,6.3-12.4,6.3s-12.5-2.8-12.5-6.3,5.6-6.3,12.5-6.3S364.4,117.6,364.4,121.1Z"/><path class="cls-10" d="M363.2,115.5c-2-2.1-6.3-3.6-11.2-3.6s-9.3,1.5-11.3,3.6h-1.2v2.7c0,3.5,5.6,6.4,12.5,6.4s12.4-2.9,12.4-6.4v-2.7Z"/><path class="cls-12" d="M364.4,115.5c0,3.5-5.6,6.4-12.4,6.4s-12.5-2.9-12.5-6.4,5.6-6.3,12.5-6.3S364.4,112,364.4,115.5Z"/><path class="cls-10" d="M363.2,110.1c-2-2.1-6.3-3.6-11.2-3.6s-9.3,1.5-11.3,3.6h-1.2v2.7c0,3.5,5.6,6.3,12.5,6.3s12.4-2.8,12.4-6.3v-2.7Z"/><path class="cls-12" d="M364.4,110.1c0,3.5-5.6,6.3-12.4,6.3s-12.5-2.8-12.5-6.3,5.6-6.3,12.5-6.3S364.4,106.6,364.4,110.1Z"/><path class="cls-10" d="M363.2,105c-2-2.1-6.3-3.6-11.2-3.6s-9.3,1.5-11.3,3.6h-1.2v2.7c0,3.5,5.6,6.3,12.5,6.3s12.4-2.8,12.4-6.3V105Z"/><path class="cls-12" d="M364.4,105c0,3.5-5.6,6.3-12.4,6.3s-12.5-2.8-12.5-6.3,5.6-6.3,12.5-6.3S364.4,101.5,364.4,105Z"/><path class="cls-10" d="M363.2,99.5c-2-2.2-6.3-3.6-11.2-3.6s-9.3,1.4-11.3,3.6h-1.2v2.7c0,3.5,5.6,6.3,12.5,6.3s12.4-2.8,12.4-6.3V99.5Z"/><path class="cls-12" d="M364.4,99.5c0,3.5-5.6,6.3-12.4,6.3s-12.5-2.8-12.5-6.3,5.6-6.3,12.5-6.3S364.4,96,364.4,99.5Z"/><path class="cls-10" d="M363.2,94c-2-2.1-6.3-3.6-11.2-3.6s-9.3,1.5-11.3,3.6h-1.2v2.7c0,3.5,5.6,6.4,12.5,6.4s12.4-2.9,12.4-6.4V94Z"/><path class="cls-12" d="M364.4,94c0,3.5-5.6,6.4-12.4,6.4s-12.5-2.9-12.5-6.4,5.6-6.3,12.5-6.3S364.4,90.5,364.4,94Z"/><path class="cls-10" d="M391.6,127c-2-2.2-6.3-3.7-11.2-3.7s-9.3,1.5-11.3,3.7h-1.2v2.7c0,3.5,5.6,6.3,12.5,6.3s12.4-2.8,12.4-6.3V127Z"/><path class="cls-12" d="M392.8,127c0,3.5-5.6,6.3-12.4,6.3s-12.5-2.8-12.5-6.3,5.6-6.3,12.5-6.3S392.8,123.5,392.8,127Z"/><path class="cls-10" d="M391.6,121.5c-2-2.1-6.3-3.6-11.2-3.6s-9.3,1.5-11.3,3.6h-1.2v2.7c0,3.5,5.6,6.4,12.5,6.4s12.4-2.9,12.4-6.4v-2.7Z"/><path class="cls-12" d="M392.8,121.5c0,3.5-5.6,6.4-12.4,6.4s-12.5-2.9-12.5-6.4,5.6-6.3,12.5-6.3S392.8,118,392.8,121.5Z"/><path class="cls-10" d="M391.6,116c-2-2.1-6.3-3.6-11.2-3.6s-9.3,1.5-11.3,3.6h-1.2v2.7c0,3.5,5.6,6.3,12.5,6.3s12.4-2.8,12.4-6.3V116Z"/><path class="cls-12" d="M392.8,116c0,3.5-5.6,6.3-12.4,6.3s-12.5-2.8-12.5-6.3,5.6-6.3,12.5-6.3S392.8,112.5,392.8,116Z"/><path class="cls-10" d="M391.6,110.6c-2-2.2-6.3-3.7-11.2-3.7s-9.3,1.5-11.3,3.7h-1.2v2.6c0,3.5,5.6,6.4,12.5,6.4s12.4-2.9,12.4-6.4v-2.6Z"/><path class="cls-12" d="M392.8,110.6c0,3.4-5.6,6.3-12.4,6.3s-12.5-2.9-12.5-6.3,5.6-6.4,12.5-6.4S392.8,107.1,392.8,110.6Z"/><path class="cls-10" d="M391.6,105.5c-2-2.2-6.3-3.7-11.2-3.7s-9.3,1.5-11.3,3.7h-1.2v2.7c0,3.5,5.6,6.3,12.5,6.3s12.4-2.8,12.4-6.3v-2.7Z"/><path class="cls-12" d="M392.8,105.5c0,3.5-5.6,6.3-12.4,6.3s-12.5-2.8-12.5-6.3,5.6-6.3,12.5-6.3S392.8,102,392.8,105.5Z"/><path class="cls-10" d="M391.6,99.9c-2-2.1-6.3-3.6-11.2-3.6s-9.3,1.5-11.3,3.6h-1.2v2.7c0,3.5,5.6,6.4,12.5,6.4s12.4-2.9,12.4-6.4V99.9Z"/><path class="cls-12" d="M392.8,99.9c0,3.5-5.6,6.4-12.4,6.4s-12.5-2.9-12.5-6.4,5.6-6.3,12.5-6.3S392.8,96.4,392.8,99.9Z"/><path class="cls-10" d="M391.6,94.5c-2-2.1-6.3-3.6-11.2-3.6s-9.3,1.5-11.3,3.6h-1.2v2.7c0,3.5,5.6,6.3,12.5,6.3s12.4-2.8,12.4-6.3V94.5Z"/><path class="cls-12" d="M392.8,94.5c0,3.5-5.6,6.3-12.4,6.3s-12.5-2.8-12.5-6.3,5.6-6.3,12.5-6.3S392.8,91,392.8,94.5Z"/><path class="cls-10" d="M391.6,89.9c-2-2.1-6.3-3.6-11.2-3.6s-9.3,1.5-11.3,3.6h-1.2v2.7c0,3.5,5.6,6.4,12.5,6.4s12.4-2.9,12.4-6.4V89.9Z"/><path class="cls-12" d="M392.8,89.9c0,3.5-5.6,6.4-12.4,6.4s-12.5-2.9-12.5-6.4,5.6-6.3,12.5-6.3S392.8,86.4,392.8,89.9Z"/><path class="cls-10" d="M391.6,84.4c-2-2.1-6.3-3.6-11.2-3.6s-9.3,1.5-11.3,3.6h-1.2v2.7c0,3.5,5.6,6.3,12.5,6.3s12.4-2.8,12.4-6.3V84.4Z"/><path class="cls-12" d="M392.8,84.4c0,3.5-5.6,6.3-12.4,6.3s-12.5-2.8-12.5-6.3,5.6-6.3,12.5-6.3S392.8,80.9,392.8,84.4Z"/><path class="cls-10" d="M391.6,79c-2-2.2-6.3-3.7-11.2-3.7s-9.3,1.5-11.3,3.7h-1.2v2.7c0,3.4,5.6,6.3,12.5,6.3s12.4-2.9,12.4-6.3V79Z"/><path class="cls-12" d="M392.8,79c0,3.5-5.6,6.3-12.4,6.3s-12.5-2.8-12.5-6.3,5.6-6.4,12.5-6.4S392.8,75.5,392.8,79Z"/><path class="cls-8" d="M315,92.4a2.6,2.6,0,0,1-2.1-1.1,2.6,2.6,0,0,1,.7-3.5l32.9-22.9a2.5,2.5,0,0,1,3.3.5l6.9,8.3,30.4-21.6a2.6,2.6,0,0,1,3.5.6,2.5,2.5,0,0,1-.6,3.5L357.6,79.1a2.5,2.5,0,0,1-3.3-.5l-6.8-8.3L316.4,91.9A2.4,2.4,0,0,1,315,92.4Z"/><path class="cls-8" d="M390.9,64.3h-.5a2.5,2.5,0,0,1-2-2.9l1.5-8.8h-9.5a2.5,2.5,0,0,1-2.5-2.5,2.5,2.5,0,0,1,2.5-2.5h12.4a2.5,2.5,0,0,1,1.9.9,2.1,2.1,0,0,1,.5,2l-1.9,11.7A2.4,2.4,0,0,1,390.9,64.3Z"/><path class="cls-3" d="M98.4,225a7.2,7.2,0,0,1,0,10.2L64.6,269a7.2,7.2,0,0,1-10.2,0L35.1,249.7a7.2,7.2,0,0,1,0-10.2l33.8-33.8a7.2,7.2,0,0,1,10.2,0Z"/><rect class="cls-9" x="45.2" y="232" width="25.4" height="27.3" transform="translate(-156.7 112.9) rotate(-45)"/><rect class="cls-4" x="57.7" y="216.3" width="22.3" height="4.21" transform="translate(-134.3 112.6) rotate(-45)"/><rect class="cls-4" x="67.5" y="227.4" width="22.2" height="1.63" transform="translate(-138.4 122.5) rotate(-45)"/><rect class="cls-4" x="69.7" y="229.6" width="22.3" height="1.63" transform="translate(-139.2 124.6) rotate(-45)"/><rect class="cls-4" x="71.8" y="231.7" width="22.3" height="1.63" transform="translate(-140.1 126.7) rotate(-45)"/><rect class="cls-4" x="73.9" y="233.8" width="22.2" height="1.63" transform="translate(-141 128.9) rotate(-45)"/><path class="cls-11" d="M57.3,237.7a5.2,5.2,0,0,1,0,7.3,5.1,5.1,0,0,1-7.4,0,5.2,5.2,0,0,1,0-7.3A5.1,5.1,0,0,1,57.3,237.7Z"/><path class="cls-11" d="M59.4,242.4l-4.7,4.7a6.2,6.2,0,0,0,0,8.7l5.1,5.1,13.4-13.4-5.1-5.1A6.2,6.2,0,0,0,59.4,242.4Z"/><path class="cls-10" d="M111.8,246.2a2.4,2.4,0,0,1-2.4-2.4V221.4a3.6,3.6,0,0,0-3.5-3.6H95.1a3.6,3.6,0,0,0-3.6,3.6v3.4a2.4,2.4,0,0,1-2.4,2.4,2.4,2.4,0,0,1-2.4-2.4v-3.4a8.5,8.5,0,0,1,8.4-8.4h10.8a8.4,8.4,0,0,1,8.3,8.4v22.4A2.4,2.4,0,0,1,111.8,246.2Z"/><rect class="cls-13" x="78" y="231.1" width="44.9" height="44.83" rx="7.2"/><path class="cls-14" d="M90.4,271a7.2,7.2,0,0,1-7.2-7.2V233.4a7.6,7.6,0,0,1,.3-2.1,7.3,7.3,0,0,0-5.3,7v30.4a7.2,7.2,0,0,0,7.2,7.2h30.5a7.3,7.3,0,0,0,6.9-5.1l-2,.2Z"/><circle class="cls-1" cx="100.5" cy="250.6" r="5.7"/><rect class="cls-1" x="98" y="251" width="4.9" height="12.34"/><path class="cls-8" d="M84.1,299.6a5.9,5.9,0,0,1-4-1.6,5.7,5.7,0,0,1-1.7-4.1,5.6,5.6,0,0,1,1.7-4L86,284a5.6,5.6,0,0,1,4-1.7,5.4,5.4,0,0,1,4,1.7,5.6,5.6,0,0,1,0,8.1L88.1,298A5.8,5.8,0,0,1,84.1,299.6ZM90,285.4a2.6,2.6,0,0,0-1.9.7L82.2,292a2.9,2.9,0,0,0-.8,1.9,2.6,2.6,0,0,0,.8,1.9,2.7,2.7,0,0,0,3.8,0l5.9-5.9a2.6,2.6,0,0,0,0-3.8A2.6,2.6,0,0,0,90,285.4Z"/><path class="cls-8" d="M100,283.7a5.6,5.6,0,0,1-4-1.7,5.8,5.8,0,0,1-1.6-4,5.9,5.9,0,0,1,1.6-4l5.9-5.9a5.7,5.7,0,0,1,4.1-1.7,5.6,5.6,0,0,1,4,1.7,5.8,5.8,0,0,1,0,8l-5.9,5.9A5.7,5.7,0,0,1,100,283.7Zm6-14.3a2.6,2.6,0,0,0-1.9.8l-5.9,5.9a2.7,2.7,0,0,0,0,3.8,2.5,2.5,0,0,0,1.8.8,2.6,2.6,0,0,0,1.9-.8l5.9-5.9a2.7,2.7,0,0,0,0-3.8A2.5,2.5,0,0,0,106,269.4Z"/><path class="cls-8" d="M115.9,267.8a5.9,5.9,0,0,1-4-1.6,5.7,5.7,0,0,1-1.7-4.1,5.6,5.6,0,0,1,1.7-4l5.9-5.9a5.5,5.5,0,0,1,4-1.6,5.4,5.4,0,0,1,4,1.6,5.6,5.6,0,0,1,0,8.1l-5.9,5.9A5.8,5.8,0,0,1,115.9,267.8Zm5.9-14.2a2.6,2.6,0,0,0-1.9.7l-5.9,5.9a2.9,2.9,0,0,0-.8,1.9,2.6,2.6,0,0,0,.8,1.9,2.7,2.7,0,0,0,3.8,0l5.9-5.9a2.6,2.6,0,0,0,0-3.8A2.6,2.6,0,0,0,121.8,253.6Z"/><path class="cls-8" d="M91.8,287.8a2.1,2.1,0,0,1-1.1-.4,1.6,1.6,0,0,1,0-2.2l6.6-6.6a1.5,1.5,0,0,1,2.1,0,1.6,1.6,0,0,1,0,2.2l-6.6,6.6A1.8,1.8,0,0,1,91.8,287.8Z"/><path class="cls-8" d="M107.3,272.3a1.6,1.6,0,0,1-1.1-.5,1.5,1.5,0,0,1,0-2.1l6.6-6.6a1.5,1.5,0,1,1,2.1,2.1l-6.5,6.6A1.6,1.6,0,0,1,107.3,272.3Z"/><path class="cls-15" d="M118.9,244.4a1.8,1.8,0,0,1-1.8,1.8h0a1.8,1.8,0,0,1-1.7-1.8v-8a1.8,1.8,0,0,1,1.7-1.8h0a1.8,1.8,0,0,1,1.8,1.8Z"/><rect class="cls-3" x="392.6" y="216.8" width="50.8" height="67.61" rx="8.1"/><rect class="cls-14" x="399.8" y="223.9" width="36.3" height="50.26"/><path class="cls-1" d="M420.3,278.9a2.3,2.3,0,0,1-2.3,2.4,2.4,2.4,0,0,1-2.4-2.4,2.3,2.3,0,0,1,2.4-2.3A2.3,2.3,0,0,1,420.3,278.9Z"/><polygon class="cls-13" points="399.8 223.9 436.1 274.1 436.1 223.9 399.8 223.9"/><text class="cls-16" transform="translate(405 241.9)">0101o1</text><text class="cls-16" transform="translate(405 251.6)">0101o1</text><text class="cls-16" transform="translate(405 262.3)">0101o1</text><rect class="cls-3" x="170.1" y="186" width="160" height="125.39" rx="5.9"/><path class="cls-4" d="M318.7,295.3a6.2,6.2,0,0,1-6,6H188.1c-3.3,0-6.4-2.8-6.4-6V201.7c0-3.2,3.1-5.4,6.4-5.4H312.7c3.2,0,6,2.2,6,5.4Z"/><path class="cls-1" d="M181.7,201.2v93.5a6.5,6.5,0,0,0,6.4,6.1H312.7a5.9,5.9,0,0,0,4-1.7L184.2,196.9A4.9,4.9,0,0,0,181.7,201.2Z"/><text class="cls-17" transform="translate(193.6 238.5)">block chain</text><text class="cls-18" transform="translate(194.1 269.7)"><tspan class="cls-19">t</tspan><tspan x="9.7" y="0">echnology</tspan></text><path class="cls-9" d="M332.8,295.6H152.4c0,17.7,18.1,18.4,18.1,18.4H332.8s18.1-.7,18.1-18.4Z"/></g></svg>