<?xml version="1.0" encoding="utf-8"?>
<!-- Generator: Adobe Illustrator 23.1.0, SVG Export Plug-In . SVG Version: 6.00 Build 0)  -->
<svg version="1.1" id="Layer_1" xmlns="http://www.w3.org/2000/svg" xmlns:xlink="http://www.w3.org/1999/xlink" x="0px" y="0px"
	 viewBox="0 0 120 120" style="enable-background:new 0 0 120 120;" xml:space="preserve">
<style type="text/css">
	.st0{fill:#2D3747;}
	.st1{fill:#FCC397;}
	.st2{fill:#E5E5E5;}
	.st3{fill:#333333;}
	.st4{fill:#515151;}
	.st5{fill:#5FA6B2;}
	.st6{fill:#FFFFFF;}
	.st7{fill:#EA9F6C;}
	.st8{fill:#663412;}
	.st9{fill:#302620;}
	.st10{fill:#EA8C63;}
	.st11{fill:#D87350;}
</style>
<g>
	
		<ellipse transform="matrix(1.060785e-03 -1 1 1.060785e-03 -3.1653 124.9064)" class="st0" cx="60.9" cy="64" rx="49.8" ry="49.8"/>
	<path class="st1" d="M90,56.9C89,54.1,86.4,52,83.2,52l-10.7-1.3c-2-0.8-3.7-2.7-4.1-4.1l-0.1-5.4c-1.2,0.9-2.3,1.4-3.7,2.3
		c-0.6,0.2-3.1,0.2-3.9,0c-2-1.2-4.3-2.5-6.4-4.5l-0.2,7.8c-0.5,1.4-2.4,3.1-4.3,3.9L39,52c-3.5,0-6.4,2.6-7,5.9
		c0,0.1,0,0.3-0.1,0.4c0,0.1,0,0.2,0,0.2c0,0,0,0.1,0,0.1l10.4,8.6l3.8,12.4h30l4.1-13.4h1.1L90,56.9z"/>
	<rect x="51.6" y="53.9" class="st2" width="18" height="33.3"/>
	<path class="st3" d="M89.9,56.6c-1-2.7-3.6-4.6-6.7-4.6l-10.7-1.3c-0.4-0.2-1.9-0.4-2.3-0.6l-8.9,34.7l-9.1-35.7
		c-0.7,0.7-1.6,1.2-2.5,1.6L39,52c-2.2,0-4.1,1-5.4,2.5l0,0c-0.1,0.1-0.2,0.3-0.4,0.6c-0.3,0.4-0.5,0.8-0.7,1.3
		c-2.6,5.2-7.6,19.6-7.8,25.9c-0.2,7.4,9.2,20.9,12.9,24.3l9.3-0.7l-5.3,3.2l-0.1,0.9c6,2.5,12.6,3.9,19.5,3.9
		c7,0,13.7-1.5,19.8-4.1l-0.2-3.3c1.2,0.8,2.8,0.9,4.5-1.1c3.7-3.4,12.9-16.4,12.7-23.8C97.7,75.3,92.6,62,89.9,56.6z M42.1,98.2
		c-2.8-4.8-6.2-12.4-6.9-14c-1.2-3.1,2.2-10.3,5.6-15.6L42.1,98.2L42.1,98.2z M80.1,98.9L80,97.4l1.1-28.1c3,5.2,6.2,11.6,6.2,14.8
		C87.4,86.4,82.9,93.5,80.1,98.9z"/>
	<path class="st4" d="M77.1,63.3l-0.7-12.1l-3.6-0.4c-0.5-0.2-1-0.5-1.5-0.8l-1.9,2.5l-8.2,32.1L53,52.4l-1.9-2.5
		c-0.5,0.3-1,0.6-1.5,0.8l-3.4,0.4l-0.6,12.1l4.6,0.8l-0.9,4.7l11.3,21.7l-0.2,2.8l13.1-24.4l-0.9-4.7L77.1,63.3z"/>
	<polygon class="st5" points="57.8,71.2 61.2,84.6 64.1,73.4 62.4,59.6 64.5,56.6 63.2,53.2 59,53.1 57.8,56.7 59.8,59.5 	"/>
	<polygon class="st6" points="53.7,46.6 61.2,53.1 55.7,58.6 50.3,50.2 	"/>
	<path class="st1" d="M48.4,107.3C48.4,107.3,48.4,107.3,48.4,107.3c-1.5-2.3-1.1-1.6-1.8-2.8c-0.9-1.4-2.8-1.8-4.2-0.8
		c-3.4,2.2-2.8,1.8-3.1,2.1c-0.4,0.8-0.6,1.8-0.6,2.9c1.7,0.8,3.4,1.6,5.2,2.2C45.8,110.2,47.4,109,48.4,107.3z"/>
	<polygon class="st6" points="68.8,46.6 61.2,53.1 66.8,58.6 72.2,50.2 	"/>
	
		<rect x="37.4" y="103.7" transform="matrix(0.8092 -0.5875 0.5875 0.8092 -53.6103 44.2368)" class="st6" width="7.8" height="1.9"/>
	<path class="st4" d="M51.4,100.9l-1.8,0c0.1,0.6,0.2,1.1,0.2,1.7c0,1.7-0.5,3.3-1.3,4.7c-1,1.6-2.6,2.9-4.5,3.5
		c0.5,0.2,1.5,0.5,2.4,0.8c3.1-1.8,5.2-5.2,5.1-9.1C51.5,102,51.5,101.4,51.4,100.9z"/>
	<path class="st1" d="M82.8,105.3l-2.9-1.9c-1.4-0.9-3.3-0.5-4.2,0.9c-0.7,1.1-0.3,0.5-1.8,2.7c0,0,0,0,0,0c1.1,1.6,2.7,2.9,4.6,3.5
		c1.7-0.7,3.5-1.4,5.1-2.3C83.6,107.4,83.3,105.7,82.8,105.3z"/>
	<path class="st4" d="M73.9,107.1c-0.9-1.4-1.4-3-1.4-4.7c0-0.6,0.1-1.2,0.2-1.7h-1.8c-0.1,0.6-0.1,1.1-0.1,1.7
		c0,3.9,2.1,7.3,5.3,9.1c1-0.3,1.7-0.6,2.5-0.9C76.6,110,75,108.8,73.9,107.1z"/>
	
		<rect x="80.6" y="100.3" transform="matrix(0.5875 -0.8092 0.8092 0.5875 -50.6571 108.9668)" class="st6" width="1.9" height="7.8"/>
	<g>
		<path class="st7" d="M60.7,42.1c0,0-2.9-0.8-6.6-2.8v3.5c1.1,0.7,2.7,1.7,3.8,2.4c0.6,0.3,1.6,0.5,1.6,0.5h4.1
			c0,0,1.1-0.1,1.6-0.4c0.9-0.6,1.9-1.4,3.1-2.2v-3.9C64.2,41.1,60.7,42.1,60.7,42.1z"/>
		<path class="st1" d="M74.8,24.1C74.4,24,74,24,73.6,24.2c0.2-4.4,0.1-8.4-0.4-9.3c-3.1-4.9-6.8-7-12.1-7.2c0,0,0,0,0,0
			c0,0,0,0,0,0c-5.4,0.2-8.6,2.3-11.7,7.2c-0.6,0.9-0.7,5-0.6,9.6c-0.6-0.4-1.2-0.6-1.7-0.4c-1.2,0.4-1.6,2.3-0.9,4.3
			c0.6,1.7,1.8,2.9,2.9,3c0.2,3.9,0.4,6.9,0.4,6.9c3.6,2.5,6,4.2,8.1,5.4c0.5,0.3,1.3,0.4,1.3,0.4h4.4c0,0,1-0.1,1.5-0.4
			c2.1-1.2,4.5-2.9,8.2-5.4c0,0,0.3-3.1,0.5-7c0.9-0.3,1.9-1.4,2.4-2.9C76.4,26.4,76,24.5,74.8,24.1z"/>
		<path class="st8" d="M64.1,22.6c0.4-0.2,4.9-2,6.3,0.4c1.1,2-1,0-2.4,0c-1.8,0-2.2,0.1-3.6,0.3C63.8,23.3,63.6,22.9,64.1,22.6z"/>
		<path class="st8" d="M57.5,22.6c-0.4-0.2-4.8-1.8-6.1,0.3c-1.2,1.9,0.9,0,2.3,0c1.7,0,2.7,0.2,3.5,0.3
			C57.8,23.4,58,22.9,57.5,22.6z"/>
		<path class="st6" d="M57.7,26.1c-1.5,0.5-2.1,0.5-2.9,0.5c-1.2,0-2.2-0.4-2.2-1.1c0-0.7,1-1.3,2.2-1.3
			C56,24.3,57.5,25.6,57.7,26.1z"/>
		<path class="st9" d="M56,25.5c0,0.7-0.5,1.2-1.1,1.2c-0.6,0-1.1-0.5-1.1-1.2c0-0.7,0.5-1.2,1.1-1.2C55.5,24.3,56,24.8,56,25.5z"/>
		<path d="M55.6,25.5c0,0.4-0.3,0.8-0.7,0.8c-0.4,0-0.7-0.3-0.7-0.8c0-0.4,0.3-0.8,0.7-0.8C55.3,24.7,55.6,25.1,55.6,25.5z"/>
		<path class="st6" d="M56,25.5c0,0.2-0.2,0.3-0.4,0.3c-0.2,0-0.4-0.1-0.4-0.3c0-0.2,0.2-0.3,0.4-0.3C55.8,25.2,56,25.3,56,25.5z"/>
		<path class="st7" d="M57.7,26.1c0,0-0.4-0.7-2-1.2c-1.2-0.4-2.9,0.2-3,1c-0.5-0.4-0.5-1,0.7-1.5c1.4-0.5,3.1-0.2,4.1,1.3
			C57.6,25.9,57.7,26,57.7,26.1z"/>
		<path class="st6" d="M64,26.1c1.5,0.5,2,0.6,2.9,0.5c1.2,0,2.2-0.3,2.2-1.1c0-0.7-1-1.3-2.2-1.3C65.7,24.3,64.2,25.6,64,26.1z"/>
		<path class="st9" d="M65.7,25.4c0,0.7,0.5,1.2,1.1,1.2c0.6,0,1.1-0.5,1.1-1.2c0-0.7-0.5-1.2-1.1-1.2
			C66.2,24.3,65.7,24.8,65.7,25.4z"/>
		<path d="M66.1,25.4c0,0.4,0.3,0.8,0.7,0.8s0.7-0.3,0.7-0.8c0-0.4-0.3-0.8-0.7-0.8S66.1,25,66.1,25.4z"/>
		<path class="st6" d="M67.3,25.4c0,0.2,0.2,0.3,0.4,0.3c0.2,0,0.4-0.1,0.4-0.3c0-0.2-0.2-0.3-0.4-0.3
			C67.4,25.1,67.3,25.2,67.3,25.4z"/>
		<path class="st7" d="M64,26.1c0,0,0.4-0.7,2-1.2c1.2-0.4,2.9,0.2,3,1c0.5-0.4,0.4-1-0.8-1.5c-1.4-0.5-3-0.1-4,1.4
			C64.1,25.9,64.1,26,64,26.1z"/>
		<path class="st7" d="M61.7,32.6h-1.9c-0.6,0-1.1-0.4-1.4-1c-0.1,0.2-0.1,0.4-0.1,0.6c0,0.9,1.1,1.2,1.9,1.2h1
			c0.8,0,1.9-0.3,1.9-1.2c0-0.2,0-0.4-0.1-0.6C62.9,32.2,62.3,32.6,61.7,32.6z"/>
		<path class="st7" d="M46.2,25.6c0-0.2,0.3-0.9,0.7-0.8c0.6,0.2,1,1.4,1.2,2.5c0.3,1.2,0.1,2,0,1.7c-0.2-0.4-0.4-1.9-1.1-3.2
			C46.6,25,46.3,26.8,46.2,25.6z"/>
		<path class="st7" d="M75.6,25.6c0-0.2-0.3-0.9-0.7-0.8c-0.6,0.2-1,1.4-1.2,2.5c-0.3,1.2-0.1,2,0,1.7c0.2-0.4,0.4-1.9,1.1-3.2
			C75.2,25,75.5,26.8,75.6,25.6z"/>
		<path class="st9" d="M70.7,8.4c-2-3.5-13.5-2-17.2-1c-3.7,1-6.1,3-5.9,6.2c0.1,2.7,0.1,8.9,0.1,10.5c0.3,0,0.6,0.2,0.9,0.4
			l0.7,3.3l0.8-5.2c0,0-1.5-10.1,8.3-8.3c-1.4,0.8-3.9,3.4-3.9,3.4s5.8-1.4,8.1-2.3c2.3-0.9,0,1.9,0,1.9s4.4-1.6,5.8-2.1
			c1.4-0.5,2.8-0.1,3,2.3c0.3,2.4,0.9,11.5,0.9,11.5l1.6-4.8c0.1,0,0.2-0.1,0.4-0.1c0.1-1,0.1-2.2,0.2-3.6C75.2,6,72.2,11,70.7,8.4z
			"/>
		<g>
			<path class="st10" d="M57.5,36.7c0.1,0.4,0.8,1.5,1.2,1.5h4.2c0.4,0,1.1-1.1,1.2-1.5H57.5z"/>
			<path class="st11" d="M62.7,36.9c-0.9-0.1-3.8-0.1-4.2,0c-1.2,0.1-1.8-0.6-1.8-0.7c0.1-0.2,0.2-0.2,0.3,0c0.1,0.2,0.9,0.1,1.3,0
				c1.9-0.4,1.4,0,2.4,0.1c0.9,0,0.6-0.4,2.2-0.1c0.6,0.1,1.3,0.3,1.6,0.2c0.2-0.1,0.3-0.2,0.4,0C64.9,36.6,64.1,37.1,62.7,36.9z"/>
		</g>
	</g>
</g>
</svg>
