<svg xmlns="http://www.w3.org/2000/svg" viewBox="0 0 500 372.6"><defs><style>.cls-1{fill:#ebebeb;}.cls-2{fill:#f0f0f0;}.cls-3{fill:#f5f5f5;}.cls-4{fill:#e6e6e6;}.cls-13,.cls-20,.cls-21,.cls-5,.cls-9{fill:#fff;}.cls-6{fill:#e0e0e0;}.cls-7{fill:#fafafa;}.cls-11,.cls-12,.cls-15,.cls-8{fill:#407bff;}.cls-14,.cls-9{opacity:0.3;}.cls-10{fill:#263238;}.cls-11,.cls-13{opacity:0.4;}.cls-12{opacity:0.1;}.cls-15{opacity:0.6;}.cls-16{fill:#ff5652;}.cls-17{fill:#ff8b7b;}.cls-18,.cls-19{opacity:0.2;}.cls-20{opacity:0.5;}.cls-21{opacity:0.7;}</style></defs><title>3411110</title><g id="Background_Complete" data-name="Background Complete"><rect class="cls-1" y="327.4" width="500" height="0.25"/><path class="cls-1" d="M237,337.8H43.9a5.8,5.8,0,0,1-5.7-5.7V60.7A5.7,5.7,0,0,1,43.9,55H237a5.6,5.6,0,0,1,5.7,5.7V332.1A5.7,5.7,0,0,1,237,337.8ZM43.9,55.2a5.5,5.5,0,0,0-5.4,5.5V332.1a5.4,5.4,0,0,0,5.4,5.4H237a5.5,5.5,0,0,0,5.5-5.4V60.7a5.5,5.5,0,0,0-5.5-5.5Z" transform="translate(0 -55)"/><path class="cls-1" d="M453.3,337.8H260.2a5.8,5.8,0,0,1-5.7-5.7V60.7a5.7,5.7,0,0,1,5.7-5.7H453.3a5.6,5.6,0,0,1,5.7,5.7V332.1A5.7,5.7,0,0,1,453.3,337.8ZM260.2,55.2a5.5,5.5,0,0,0-5.4,5.5V332.1a5.4,5.4,0,0,0,5.4,5.4H453.3a5.5,5.5,0,0,0,5.5-5.4V60.7a5.5,5.5,0,0,0-5.5-5.5Z" transform="translate(0 -55)"/><rect class="cls-1" x="174.4" y="337" width="26" height="0.25"/><rect class="cls-1" x="52.5" y="334.3" width="54.1" height="0.25"/><rect class="cls-1" x="147.1" y="346.3" width="26.3" height="0.25"/><rect class="cls-1" x="258.2" y="344.6" width="38.8" height="0.25"/><rect class="cls-1" x="306" y="344.6" width="10.7" height="0.25"/><rect class="cls-1" x="395.3" y="340.4" width="54.6" height="0.25"/><rect class="cls-2" x="381.1" y="248.1" width="45.7" height="125.47" transform="translate(807.8 566.6) rotate(180)"/><rect class="cls-2" x="181.7" y="373.5" width="236.2" height="8.87" transform="translate(599.7 701) rotate(180)"/><rect class="cls-3" x="173" y="193.1" width="208.1" height="125.47"/><rect class="cls-2" x="173" y="201.6" width="208.9" height="45.93"/><rect class="cls-2" x="173" y="255.9" width="208.9" height="45.93"/><rect class="cls-4" x="381.1" y="256.5" width="7.9" height="45.93" transform="translate(770 504.1) rotate(180)"/><rect class="cls-4" x="381.1" y="310.8" width="7.9" height="45.93" transform="translate(770 612.7) rotate(180)"/><rect class="cls-2" x="166.9" y="240.3" width="214.2" height="7.72" transform="translate(547.9 433.4) rotate(180)"/><rect class="cls-4" x="381.1" y="185.4" width="52" height="7.72"/><rect class="cls-2" x="328.1" y="81.7" width="107.4" height="135.04" transform="translate(763.7 243.5) rotate(180)"/><rect class="cls-3" x="304.4" y="81.7" width="127" height="135.04" transform="translate(735.9 243.5) rotate(180)"/><rect class="cls-5" x="311.1" y="96.3" width="113.8" height="105.75" transform="translate(218.7 462.2) rotate(-90)"/><path class="cls-4" d="M379.7,161.5l20.2-9.3v-5.9l-20.2-9.4v7l12.2,5.3-12.2,5.3Z" transform="translate(0 -55)"/><path class="cls-4" d="M366.5,134.1h-3.7l6.5,30.2H373Z" transform="translate(0 -55)"/><path class="cls-4" d="M356.2,154.5,344,149.2l12.2-5.3v-7L336,146.3v5.9l20.2,9.3Z" transform="translate(0 -55)"/><rect class="cls-2" x="117.2" y="153.2" width="7" height="229.18" transform="translate(241.5 480.7) rotate(180)"/><path class="cls-2" d="M115.8,380.8l-.2-1a5.6,5.6,0,0,0,3.3-2.9c1.8-3.2,2.9-10.1-2.2-24.6-7.8-22.3-3.1-40.3,6.2-76.2,1.6-6.3,3.5-13.4,5.4-21,7.2-28.7.5-46.4-4.8-60.7-4.1-11.1-7.4-19.9-3.2-30l.9.3c-4,9.8-.8,18.4,3.2,29.3,5.4,14.4,12.1,32.4,4.9,61.3l-5.4,21c-9.3,35.7-14,53.6-6.2,75.6,5.2,14.9,4,22.1,2,25.6A6.6,6.6,0,0,1,115.8,380.8Z" transform="translate(0 -55)"/><polygon class="cls-2" points="108 327.4 133.5 327.4 126.4 323.3 115.1 323.3 108 327.4"/><polygon class="cls-3" points="70.3 127.5 171.2 127.5 160.1 42.7 81.4 42.7 70.3 127.5"/><polygon class="cls-2" points="219.9 141.4 273.7 141.4 266.6 185.4 227 185.4 219.9 141.4"/><path class="cls-6" d="M241.5,210.7c14.7-5.3,25.9-13.3,13.4-29.5s-32.1-16-45.3-8.9c-16.7,9.1-13.3,35.5-13.3,35.5S226.8,216,241.5,210.7Z" transform="translate(0 -55)"/><path class="cls-4" d="M255.8,196c-11.2-7.7-19.2-16.5-6.2-25.9s29.1-4.5,38.8,4.2c12.3,11,5.2,30.4,5.2,30.4S267,203.6,255.8,196Z" transform="translate(0 -55)"/><path class="cls-2" d="M236,176.6c13.2-.8,24.2-4.2,17.9-18.5s-21.9-18.2-34.3-15.7c-15.7,3.1-19.4,22.7-19.4,22.7S222.9,177.4,236,176.6Z" transform="translate(0 -55)"/><path class="cls-1" d="M252.5,168.2c-10.9-3.5-19.5-8.8-11.2-19.5s22.5-10.6,32.4-5.9c12.7,6,11.5,23.5,11.5,23.5S263.4,171.7,252.5,168.2Z" transform="translate(0 -55)"/><path class="cls-3" d="M232,150c10.9,3.6,20.9,4.3,20.5-9.2s-11.9-21.8-22.7-23.9c-13.8-2.5-23.1,12.2-23.1,12.2S221.1,146.4,232,150Z" transform="translate(0 -55)"/><path class="cls-7" d="M259.7,144.2c-7.8.5-14.6-.7-12-9.6s11.6-12.4,19-11.9c9.5.7,13.2,12,13.2,12S267.5,143.6,259.7,144.2Z" transform="translate(0 -55)"/></g><g id="Shadow"><ellipse id="_Path_" data-name="&lt;Path&gt;" class="cls-3" cx="250" cy="361.3" rx="193.9" ry="11.3"/></g><g id="Desk"><rect class="cls-8" x="79.5" y="196.1" width="339.8" height="12.19"/><rect class="cls-9" x="79.5" y="196.1" width="90.9" height="12.19"/><polygon class="cls-8" points="171.9 208.3 164 208.3 168.1 361.1 171.9 361.1 175.7 361.1 179.8 208.3 171.9 208.3"/><polygon class="cls-9" points="168.1 361.1 171.9 361.1 171.9 211.6 164.1 213 168.1 361.1"/><polygon class="cls-8" points="96.9 208.3 89 208.3 93.2 361.1 96.9 361.1 100.7 361.1 104.8 208.3 96.9 208.3"/><polygon class="cls-9" points="93.2 361.1 96.9 361.1 96.9 211.6 89.1 213 93.2 361.1"/><polygon class="cls-8" points="401.9 208.3 393.9 208.3 398.1 361.1 401.9 361.1 405.6 361.1 409.8 208.3 401.9 208.3"/><polygon class="cls-9" points="398.1 361.1 401.9 361.1 401.9 211.6 394.1 213 398.1 361.1"/><polygon class="cls-8" points="326.9 208.3 319 208.3 323.1 361.1 326.9 361.1 330.6 361.1 334.8 208.3 326.9 208.3"/><polygon class="cls-9" points="323.1 361.1 326.9 361.1 326.9 211.6 319.1 213 323.1 361.1"/><path class="cls-10" d="M240.8,185.8H159.9c-2.9,0-4.7,2.4-4.1,5.3l10.7,51.4a6.9,6.9,0,0,0,6.4,5.2h80.9a4.1,4.1,0,0,0,4.1-5.2l-10.7-51.4A6.9,6.9,0,0,0,240.8,185.8Z" transform="translate(0 -55)"/><path class="cls-5" d="M173.7,244.8a4.8,4.8,0,0,1-4.3-3.6l-10.8-51.3a2.5,2.5,0,0,1,.4-2.1,2.2,2.2,0,0,1,1.7-.7h80.8a4.8,4.8,0,0,1,4.3,3.6l10.8,51.4a2.1,2.1,0,0,1-2.1,2.7Z" transform="translate(0 -55)"/><path class="cls-11" d="M234.7,240.7,224.5,192a1.9,1.9,0,0,1,1.9-2.3h13.1a2,2,0,0,1,2,1.5l10.2,48.7a2.1,2.1,0,0,1-2,2.4H236.6A2,2,0,0,1,234.7,240.7Z" transform="translate(0 -55)"/><polygon class="cls-8" points="165.3 138.9 164.9 136.8 181.1 136.8 181.5 138.9 165.3 138.9"/><polygon class="cls-1" points="172.8 144.2 172.4 142 200.8 142 201.2 144.2 172.8 144.2"/><polygon class="cls-1" points="174.3 149.4 173.9 147.3 205.7 147.3 206.1 149.4 174.3 149.4"/><polygon class="cls-1" points="175.8 154.6 175.3 152.5 201 152.5 201.4 154.6 175.8 154.6"/><polygon class="cls-8" points="170.2 163.1 169.8 161 180.1 161 180.5 163.1 170.2 163.1"/><polygon class="cls-1" points="177.7 168.4 177.3 166.2 189.8 166.2 190.2 168.4 177.7 168.4"/><polygon class="cls-1" points="193.2 168.4 192.8 166.2 205.2 166.2 205.7 168.4 193.2 168.4"/><polygon class="cls-1" points="179.2 173.6 178.8 171.5 221 171.5 221.4 173.6 179.2 173.6"/><polygon class="cls-1" points="180.7 178.8 180.3 176.7 212.4 176.7 212.9 178.8 180.7 178.8"/><path class="cls-10" d="M278.5,247.4H172.2c-2.9,0-4.8,1.7-4.2,3.7H284.9C284.3,249.1,281.4,247.4,278.5,247.4Z" transform="translate(0 -55)"/><path class="cls-12" d="M137.2,172.8,127,124.2a2,2,0,0,1,1.9-2.4h82.7a2,2,0,0,1,1.9,1.6L223.7,172a2,2,0,0,1-1.9,2.4H139.1A1.9,1.9,0,0,1,137.2,172.8Z" transform="translate(0 -55)"/><polygon class="cls-8" points="166.6 68.5 149.2 68.5 148.8 66.6 166.2 66.6 166.6 68.5"/><polygon class="cls-11" points="163.7 71.4 156.8 71.4 156.4 69.6 163.4 69.6 163.7 71.4"/><polygon class="cls-11" points="175.3 71.4 164.6 71.4 164.2 69.6 174.9 69.6 175.3 71.4"/><polygon class="cls-11" points="180 74.4 157.4 74.4 157 72.5 179.6 72.5 180 74.4"/><polygon class="cls-11" points="177.1 77.4 158 77.4 157.6 75.5 176.7 75.5 177.1 77.4"/><polygon class="cls-11" points="189.8 109 177.6 109 178 110.9 190.2 110.9 189.8 109"/><polygon class="cls-8" points="174.6 104.9 156.8 104.9 156.4 103 174.2 103 174.6 104.9"/><polygon class="cls-11" points="181.8 112 165.2 112 165.6 113.8 182.2 113.8 181.8 112"/><polygon class="cls-11" points="176.8 109 164.6 109 165 110.9 177.2 110.9 176.8 109"/><polygon class="cls-11" points="188.3 106 164 106 164.4 107.9 188.7 107.9 188.3 106"/><polygon class="cls-8" points="166 54.6 146.3 54.6 145.9 52.7 165.6 52.7 166 54.6"/><polygon class="cls-11" points="175.6 61.6 154 61.6 154.4 63.5 176 63.5 175.6 61.6"/><polygon class="cls-11" points="171.3 58.7 153.4 58.7 153.8 60.5 171.7 60.5 171.3 58.7"/><polygon class="cls-11" points="172.5 55.7 152.8 55.7 153.2 57.6 172.9 57.6 172.5 55.7"/><polygon class="cls-8" points="165.7 82.2 152.1 82.2 151.7 80.4 165.3 80.4 165.7 82.2"/><polygon class="cls-11" points="187.2 89.3 160.5 89.3 160.9 91.1 187.5 91.1 187.2 89.3"/><polygon class="cls-11" points="170.9 86.3 159.9 86.3 160.3 88.2 171.3 88.2 170.9 86.3"/><polygon class="cls-11" points="182.9 86.3 171.9 86.3 172.3 88.2 183.3 88.2 182.9 86.3"/><polygon class="cls-11" points="183.6 83.3 159.3 83.3 159.7 85.2 184 85.2 183.6 83.3"/><polygon class="cls-11" points="183.5 98.2 162.4 98.2 162.8 100.1 183.9 100.1 183.5 98.2"/><polygon class="cls-11" points="167.9 95.2 161.8 95.2 162.1 97.1 168.3 97.1 167.9 95.2"/><polygon class="cls-11" points="177.5 95.2 168.8 95.2 169.1 97.1 177.9 97.1 177.5 95.2"/><polygon class="cls-11" points="185.4 92.3 161.1 92.3 161.5 94.1 185.8 94.1 185.4 92.3"/><polygon class="cls-11" points="204.6 91.8 195.9 91.8 195.5 89.9 204.2 89.9 204.6 91.8"/><polygon class="cls-11" points="219.1 91.8 205.7 91.8 205.3 89.9 218.7 89.9 219.1 91.8"/><polygon class="cls-11" points="224.8 94.7 196.5 94.7 196.1 92.9 224.4 92.9 224.8 94.7"/><polygon class="cls-11" points="221 97.7 197.1 97.7 196.7 95.8 220.7 95.8 221 97.7"/><polygon class="cls-11" points="231.7 79.9 204.7 79.9 205.1 81.8 232.1 81.8 231.7 79.9"/><polygon class="cls-11" points="226.5 76.9 204 76.9 204.4 78.8 226.9 78.8 226.5 76.9"/><polygon class="cls-8" points="222.4 74 197.7 74 198.1 75.8 222.8 75.8 222.4 74"/><polygon class="cls-11" points="233 109.6 199.6 109.6 200 111.5 233.4 111.5 233 109.6"/><polygon class="cls-11" points="212.8 106.6 199 106.6 199.4 108.5 213.2 108.5 212.8 106.6"/><polygon class="cls-11" points="227.8 106.6 214 106.6 214.4 108.5 228.2 108.5 227.8 106.6"/><polygon class="cls-11" points="228.8 103.7 198.4 103.7 198.8 105.5 229.2 105.5 228.8 103.7"/><polygon class="cls-11" points="228 118.5 201.5 118.5 201.9 120.4 228.4 120.4 228 118.5"/><polygon class="cls-11" points="208.6 115.6 200.9 115.6 201.2 117.4 208.9 117.4 208.6 115.6"/><polygon class="cls-11" points="220.6 115.6 209.6 115.6 210 117.4 221 117.4 220.6 115.6"/><polygon class="cls-11" points="230.7 112.6 200.2 112.6 200.6 114.4 231.1 114.4 230.7 112.6"/><polygon class="cls-11" points="149.6 120.8 128.9 120.8 129.3 122.7 150 122.7 149.6 120.8"/><polygon class="cls-11" points="143.5 117.9 128.2 117.9 128.6 119.7 143.9 119.7 143.5 117.9"/><polygon class="cls-11" points="159.8 117.9 144.5 117.9 144.9 119.7 160.2 119.7 159.8 117.9"/><polygon class="cls-11" points="158.1 114.9 127.6 114.9 128 116.8 158.5 116.8 158.1 114.9"/><polygon class="cls-8" points="391 176.7 378.1 176.7 379.6 196.1 389.5 196.1 391 176.7"/><polygon class="cls-13" points="391 176.7 378.1 176.7 379.6 196.1 389.5 196.1 391 176.7"/><polygon class="cls-10" points="111.1 163.2 129.6 163.2 123.3 196.1 104.8 196.1 111.1 163.2"/><polygon class="cls-8" points="134.6 154.4 108.6 154.4 115.9 196.1 141.9 196.1 134.6 154.4"/><polygon class="cls-8" points="107 154.4 108.6 154.4 115.9 196.1 114.3 196.1 107 154.4"/><polygon class="cls-14" points="107 154.4 108.6 154.4 115.9 196.1 114.3 196.1 107 154.4"/><polygon class="cls-5" points="119.6 191.7 113.9 158.9 130.9 158.9 136.6 191.7 119.6 191.7"/><polygon class="cls-15" points="135.8 191.7 130.1 158.9 130.9 158.9 136.6 191.7 135.8 191.7"/></g><g id="Character"><path class="cls-10" d="M263.8,156c.3.8.2,1.6-.3,1.9s-1.3-.3-1.6-1.1-.3-1.6.2-1.8S263.4,155.2,263.8,156Z" transform="translate(0 -55)"/><path class="cls-16" d="M264.1,157.6s.3,5.4-.7,8.6c2.1.7,4.2-1.1,4.2-1.1Z" transform="translate(0 -55)"/><path class="cls-10" d="M263.9,149.4h-.3a3.9,3.9,0,0,0-3.3,1.8.7.7,0,0,1-.7.2c-.3-.2-.4-.5-.2-.7a4.7,4.7,0,0,1,4.1-2.3.6.6,0,0,1,.6.5A.8.8,0,0,1,263.9,149.4Z" transform="translate(0 -55)"/><path class="cls-17" d="M293.2,154.8c3.1,10.7,6.6,19,10.8,23.7,0,0,0,8.4-14.3,12.4s-9.7-5.7-9.7-5.7c8-4.5,7.2-11.2,1.2-13.7Z" transform="translate(0 -55)"/><path class="cls-10" d="M307.3,176.5c-.3-4-.6-8.4-3.1-8.5s-18,6.7-21.3,11.6,3.1,9.6,3.1,9.6Z" transform="translate(0 -55)"/><path class="cls-17" d="M275.8,237l-13.3-.4.2,11.1s11.6-1.2,12.1-4.2Z" transform="translate(0 -55)"/><polygon class="cls-17" points="255.5 187.1 254.1 192.8 262.7 192.8 262.5 181.6 255.5 187.1"/><path class="cls-8" d="M329.2,190.7l-.3,2.9-.3,2.7-.9,5.4c-.6,3.6-1.4,7.2-2.2,10.8a113.9,113.9,0,0,1-3.4,10.9c-.7,1.8-1.4,3.7-2.2,5.5a52.1,52.1,0,0,1-3,5.7l-1,1.4a13,13,0,0,1-1,1.5l-1.2,1.4-.7.8-.7.8a24.4,24.4,0,0,1-6.9,4.6,41.9,41.9,0,0,1-12.5,3.2l-5.7.3a54.2,54.2,0,0,1-5.7-.1l-5.5-.4-5.6-.9.4-10.5a174.2,174.2,0,0,0,18.9-4.5,37,37,0,0,0,4-1.6,16.9,16.9,0,0,0,3.3-1.7,5.7,5.7,0,0,0,1.4-1.4l.3-.5a6.1,6.1,0,0,1,.4-.6,2.5,2.5,0,0,1,.4-.7,3,3,0,0,1,.4-.8,55.4,55.4,0,0,0,2.8-7.9c.9-3,1.6-6.1,2.3-9.2s1.2-6.4,1.7-9.6l.8-4.9.7-4.7Z" transform="translate(0 -55)"/><path class="cls-18" d="M329.2,190.7l-.3,2.9-.3,2.7-.9,5.4c-.6,3.6-1.4,7.2-2.2,10.8a113.9,113.9,0,0,1-3.4,10.9c-.7,1.8-1.4,3.7-2.2,5.5a52.1,52.1,0,0,1-3,5.7l-1,1.4a13,13,0,0,1-1,1.5l-1.2,1.4-.7.8-.7.8a24.4,24.4,0,0,1-6.9,4.6,41.9,41.9,0,0,1-12.5,3.2l-5.7.3a54.2,54.2,0,0,1-5.7-.1l-5.5-.4-5.6-.9.4-10.5a174.2,174.2,0,0,0,18.9-4.5,37,37,0,0,0,4-1.6,16.9,16.9,0,0,0,3.3-1.7,5.7,5.7,0,0,0,1.4-1.4l.3-.5a6.1,6.1,0,0,1,.4-.6,2.5,2.5,0,0,1,.4-.7,3,3,0,0,1,.4-.8,55.4,55.4,0,0,0,2.8-7.9c.9-3,1.6-6.1,2.3-9.2s1.2-6.4,1.7-9.6l.8-4.9.7-4.7Z" transform="translate(0 -55)"/><path class="cls-8" d="M270.1,204a329.6,329.6,0,0,1,8.4,65.1H337c.3-7.2-.9-48-6.8-77.5a20.3,20.3,0,0,0-24.4-15.9h-.3c-7.3,1.7-17.8,4.4-23.9,6.7h-.3A18.4,18.4,0,0,0,270.1,204Z" transform="translate(0 -55)"/><path class="cls-18" d="M273.9,222.7c.5,2.8,1,5.8,1.4,8.9,4.8-5,6.3-20.3,6.3-20.3Z" transform="translate(0 -55)"/><path class="cls-17" d="M225.3,237.7,212,236.5l-.4,11.1a12.4,12.4,0,0,0,12.4-3.5Z" transform="translate(0 -55)"/><polygon class="cls-17" points="205.7 184.8 201.4 192.5 211.6 192.7 212 181.5 205.7 184.8"/><path class="cls-8" d="M292.1,198.9c-.9,1.7-1.7,3.3-2.7,4.9l-2.7,4.7c-1.9,3.1-3.9,6.2-5.9,9.2a149.1,149.1,0,0,1-13.7,17.6,76.8,76.8,0,0,1-8.7,8.3l-1.3,1-1.4,1-1.8,1.1-1.8.8a26,26,0,0,1-6.9,2.1,44,44,0,0,1-12.5.3l-5.8-1-2.8-.8c-1-.2-1.8-.6-2.9-.9l1.7-10.4c6.3-.8,13-1.9,17.7-4a11.1,11.1,0,0,0,2.9-1.7l1-.8.6-.6.8-.7a80.8,80.8,0,0,0,6-6.7c3.9-5,7.6-10.6,11.2-16.2,1.8-2.8,3.6-5.7,5.3-8.6l2.6-4.4,2.5-4.2Z" transform="translate(0 -55)"/><polygon class="cls-17" points="276 352.7 265.1 352.7 259.6 327.3 270.5 327.3 276 352.7"/><path class="cls-10" d="M264.5,405.3h12.3a1,1,0,0,1,.9.7l2.2,9.7a1.7,1.7,0,0,1-1.6,2c-4.3-.1-6.4-.3-11.8-.3-3.4,0-7.6.3-12.2.3s-5.2-4.5-3.3-5c8.4-1.8,9-4.3,11.7-6.8A2.8,2.8,0,0,1,264.5,405.3Z" transform="translate(0 -55)"/><g class="cls-19"><polygon points="270.5 327.3 259.6 327.3 262.6 341.3 273.4 340.4 270.5 327.3"/></g><path class="cls-17" d="M289.7,141.9c4,10.1,6.8,15.8,4.2,23.2-4,11.1-18.2,12.2-25.1,3.4s-11.7-23.1-3.8-31.4A14.8,14.8,0,0,1,289.7,141.9Z" transform="translate(0 -55)"/><path class="cls-10" d="M270.5,157.1l-2.9,3.8s-3.4-8.3-2.1-12.2c-1.6-3.2-4.9,1.6-6.2-4.8s4.2-13.1,6.2-14.5a7.5,7.5,0,0,1,.3,2.3,28.2,28.2,0,0,1,19.6-6.2,6.6,6.6,0,0,0-1.1,2.9s11.9,2,14.6,8.7a12.2,12.2,0,0,0-3-1,14.4,14.4,0,0,1,2.4,10.7,113.4,113.4,0,0,0-1.4,16.5c.1,2.9-7.7,8.3-12.4,2.5S270.5,157.1,270.5,157.1Z" transform="translate(0 -55)"/><path class="cls-17" d="M275.4,154.9a10.6,10.6,0,0,1-.5,7.1c-1.2,2.9-3.8,2.3-5.1-.4s-1.9-6.7.1-8.8S274.7,152,275.4,154.9Z" transform="translate(0 -55)"/><path class="cls-8" d="M296,269.1s-50.8,18.4-52.3,42.8c-2.8,45,15.6,80.5,15.6,80.5l16.8-1.8s-3-14.4-5.2-55.1c-2.8-51.2,84,1.2,66.1-66.4Z" transform="translate(0 -55)"/><path class="cls-20" d="M296,269.1s-50.8,18.4-52.3,42.8c-2.8,45,15.6,80.5,15.6,80.5l16.8-1.8s-3-14.4-5.2-55.1c-2.8-51.2,84,1.2,66.1-66.4Z" transform="translate(0 -55)"/><path class="cls-8" d="M254.6,386.2c-.1,0,2.7,7.5,2.7,7.5l21-2.1-1-6.8Z" transform="translate(0 -55)"/><polygon class="cls-17" points="228.7 353.9 217.8 353.9 214.6 328.5 225.5 328.5 228.7 353.9"/><path class="cls-10" d="M217.7,405.3h12a.9.9,0,0,1,.9.8l2.2,9.7a1.7,1.7,0,0,1-1.6,2c-4.3-.1-10.6-.4-16-.3s-7.5.3-15,.3c-4.5,0-5.7-4.5-3.8-4.9,8.5-1.9,11.3-2.1,18.7-6.7A5,5,0,0,1,217.7,405.3Z" transform="translate(0 -55)"/><polygon class="cls-18" points="214.6 328.5 216.3 342.4 227.2 341.6 225.5 328.5 214.6 328.5"/><path class="cls-8" d="M278.5,269.1s-83.4,7.4-82.5,49.2c1,43.5,17.2,72.9,17.2,72.9h16.3s-3.1-22.6-2.5-65.4c.1-12.9,26.1-17.1,51.4-18.6,21.9-1.3,42.4-13.8,50.9-34l1.7-4.1Z" transform="translate(0 -55)"/><path class="cls-20" d="M278.5,269.1s-83.4,7.4-82.5,49.2c1,43.5,17.2,72.9,17.2,72.9h16.3s-3.1-22.6-2.5-65.4c.1-12.9,26.1-17.1,51.4-18.6,21.9-1.3,42.4-13.8,50.9-34l1.7-4.1Z" transform="translate(0 -55)"/><path class="cls-8" d="M209.4,386.8l2.8,7.5,19.7-1.4-1.2-6.8Z" transform="translate(0 -55)"/><path class="cls-10" d="M300.3,222.1l-10.6,40.7a132.3,132.3,0,0,0-4,32v18.9c0,4.8,3.5,8.6,7.9,8.6h54.1c4.4,0,7.9-3.8,7.9-8.6V294.8a127.6,127.6,0,0,1,4.1-32l9.3-36c1.4-5.5-2.3-11-7.6-11H307.9A8.1,8.1,0,0,0,300.3,222.1Z" transform="translate(0 -55)"/><path class="cls-10" d="M232.9,302.6l1.8,10.1c.9,5.3,5.6,9.6,10.4,9.6h60.3c4.8,0,8-4.3,7-9.6l-1.7-10.1c-1.1-6-6.4-10.9-11.9-10.9H241C235.5,291.7,231.9,296.6,232.9,302.6Z" transform="translate(0 -55)"/><polygon class="cls-8" points="311.2 277.5 279.6 277.5 276.5 267.4 314.3 267.4 311.2 277.5"/><rect class="cls-8" x="289.8" y="277.5" width="11.3" height="75.41"/><polygon class="cls-21" points="301 352.9 289.8 352.9 289.8 279.3 301 280.5 301 352.9"/><polygon class="cls-21" points="298.3 352.9 295.6 352.9 295.6 279.9 298.3 280.2 298.3 352.9"/><path class="cls-8" d="M321.3,419.6H269.5a1.5,1.5,0,0,1-.9-2.6l8.3-6.1a22.8,22.8,0,0,1,13.6-4.4h9.8a22.8,22.8,0,0,1,13.6,4.4l8.3,6.1A1.5,1.5,0,0,1,321.3,419.6Z" transform="translate(0 -55)"/></g></svg>