<svg xmlns="http://www.w3.org/2000/svg" xmlns:xlink="http://www.w3.org/1999/xlink" viewBox="0 0 586 585"><defs><style>.cls-1{fill:#f2f2f2;}.cls-2{isolation:isolate;}.cls-3{clip-path:url(#clip-path);}.cls-4{fill:#e8bd3d;}.cls-4,.cls-5,.cls-6{mix-blend-mode:multiply;}.cls-5{fill:#f1d78b;}.cls-6{fill:#dc9b36;}</style><clipPath id="clip-path" transform="translate(42 40)"><rect class="cls-1" width="500" height="500"/></clipPath></defs><title>Language</title><g class="cls-2"><g id="BACKGROUND"><rect class="cls-1" x="42" y="40" width="500" height="500"/><g class="cls-3"><rect class="cls-1" width="586" height="585"/></g></g><g id="OBJECTS"><path d="M98.2,280a96.6,96.6,0,0,0-16.2-.9c-.8-22.1-.6-44.2-.4-66.3.1-9-13.3-8.9-13.7,0-1.3,24.4-.8,48.9.2,73.3a7.3,7.3,0,0,0,7.1,7.1c6.9.2,14.4,1.2,21.2.4,3.4-.4,6.3-2.4,6.7-6S101.6,280.6,98.2,280Z" transform="translate(42 40)"/><path d="M148.7,283.6l-7.5-44.1c-1.1-6.7-1.8-13.8-3.7-20.4S132,205.7,124.6,207s-8.2,10.2-9.3,16.2-2.7,14.4-3.8,21.7-2.2,14.7-3.1,22.1c-.4,3.4-.8,6.8-1.1,10.2s-1.1,7.9.1,11.8,8.6,5.9,11,1.3a23.5,23.5,0,0,0,2.5-8.4,36.4,36.4,0,0,0,13.2-.6c.3,1.9.7,3.9,1,5.9.6,3.5,5.3,5.5,8.7,4.7S149.3,287.2,148.7,283.6Zm-22.9-14.8h-3.5c.6-5.4,1.3-10.7,2.1-16l2.4-14.6,2.1,12.3,3,17.8C129.9,268.4,127.8,268.8,125.8,268.8Z" transform="translate(42 40)"/><path d="M194.4,273.1c-.3-6.7-.8-13.3-1.2-20l-2.4-41c-.5-8.6-14.6-8.7-14.1,0l1.5,24.7c-1.3-4.8-2.6-9.6-4.3-14.3s-5.3-11.7-11.3-14.9c-3.1-1.6-6.1-.9-8.6,1.1-5.3,4-3.7,12.5-3.7,18.1l.3,20.6c.1,6.9.3,13.8.4,20.6l.3,10.3c.1,4-.1,8.1,1.3,11.9,1.9,5.4,10.1,5.8,11.9,0s.8-13,.7-19.2-.3-12.8-.4-19.1c-.1-3.8-.1-7.6-.2-11.4.9,3.3,1.7,6.6,2.5,10,3,12.8,5.8,25.7,10.6,38,2.1,5.3,9.6,6.8,12.9,1.6S194.6,279,194.4,273.1Z" transform="translate(42 40)"/><path d="M238.7,250.7c-3.7-3.3-9.8-2.2-14.4-2.1-9.1.2-9.1,13.2,0,13.1l4.2-.3a5.9,5.9,0,0,1,.2,1.4,27.1,27.1,0,0,1,.4,4,18.7,18.7,0,0,1-1.1,7.8c-1.4,3.5-4.7,7.3-9.3,6.9s-5.4-5.3-5.8-8.7c-.6-6-.5-12.2-.6-18.3s0-13.1.5-19.6c.4-4.5.5-10.2,3.5-13.9s6.9-2.7,9.8-.6,3.9,9.2,6,13.5,7.4,2.8,9.4,0c4.2-5.8,1.6-14.1-2.5-19.4a23.2,23.2,0,0,0-19.6-8.6c-17.9,1.4-20.1,19.4-20.9,32.5-.4,8.2-.3,16.4-.1,24.6.2,6.6,0,13.5,2.7,19.7,6.6,15.2,27.3,14.7,36.7,2.4,5.1-6.6,6-15,5-22.8C242.3,258.4,242,253.6,238.7,250.7Z" transform="translate(42 40)"/><path d="M293,211.2c-.6-3.6-5.3-5.5-8.7-4.7s-5.5,4.6-4.9,8.2c2.2,13,1.7,26.3.5,39.4-.6,6.1-1,12.3-2,18.4-.4,2.5-1,7.8-4.6,8.1s-6.8-4.4-7.6-7.5c-1.6-5.7-1.2-12-1.3-17.8-.4-13.7-.7-27.4-1.2-41.1-.4-8.2-13.9-8.3-13.8,0,.2,13,.6,25.9.9,38.9.3,11.3-1,25,7.6,34.1s22,9.2,29.2-.2c3.2-4.2,4.2-9.3,4.8-14.3s1.5-11.9,2-17.9C295.3,240.2,295.5,225.7,293,211.2Z" transform="translate(42 40)"/><path d="M347,285.6c-2.4-11.7-4.7-23.4-7.1-35.1s-4-22.3-9.7-32.5c-2.5-4.4-6.4-11.4-12.8-11.6s-9.8,6.2-11.5,11.3c-3.8,11-4.3,23.2-5.8,34.6-.8,6.7-1.6,13.3-2.2,19.9a62.7,62.7,0,0,0-.6,9.6c.3,3.1.7,7.1,3.4,9.2a3.8,3.8,0,0,0,4.4.5c4.9-2.8,5.7-9.5,6.3-14.9,3,.3,6.2.4,9.3.4s7,.3,10.2-.7c.8,4.2,1.7,8.4,2.5,12.7s5.2,5.2,8.7,4.4A6.4,6.4,0,0,0,347,285.6Zm-26.3-21c-2.7.1-5.4.1-8,.3.4-3.7.8-7.5,1.3-11.2q1.2-9.9,2.7-19.8c.4-2.8.8-5.5,1.4-8.1a3.1,3.1,0,0,0,.2-.8,36,36,0,0,1,3,7c2.1,6,3.2,12.3,4.4,18.5s1.9,9.3,2.8,14A68.2,68.2,0,0,0,320.7,264.6Z" transform="translate(42 40)"/><path d="M389.2,255.3c-.7-2.9-3.8-4.7-6.8-4.8l-8.2-.3c-9.1-.4-9.1,12.7,0,13.1h2.5c.9,4.4,1.4,9-.3,13.1s-5.1,7-9.7,5.4-4.9-5.6-5.3-9.1c-.7-6.1.1-12.4.4-18.5l.9-21.7c.2-3.2,0-6.6.5-9.8a5.4,5.4,0,0,1,2.2-4c2.3-1.6,5.4-1.8,7.3.3,3.6,3.8,2.2,9.7,5.8,13.5,1.7,1.8,5,1.6,6.7,0,4.6-4.3,3.3-12.9.8-17.9a18.5,18.5,0,0,0-15.3-10,21.4,21.4,0,0,0-15.9,5.5c-5.6,5.1-5.7,12-6,18.8s-.7,15.9-1.1,23.9-1,13.3-.4,19.9,2.3,12.4,7.2,17a21.9,21.9,0,0,0,20.4,4.8c7.5-2,12.7-8,15.1-14.6S391.1,263.3,389.2,255.3Z" transform="translate(42 40)"/><path d="M428.2,282c-3.6-1-7.3-.3-11-.1l-4.6.2h-1.1c.1-1.6.4-3.2.5-4.5.1-3.2.1-6.4.2-9.5h0a82.3,82.3,0,0,0,8.6.1c8.9-.5,8.9-11.7,0-12.2a86.1,86.1,0,0,0-8.8.1h0c0-2.3-.1-4.6-.2-7-.3-6.3-.7-12.7-1.3-19-.4-3.8-.6-7.9-1.2-11.8,3.5-.1,7.1-.5,10.5-.5l1.2.3h.3c4.6.7,8.6-1.8,8.9-6v-.4a6.1,6.1,0,0,0-3.5-5.4c-3.9-1.9-8.9-1-13.1-.8s-10.3-.3-14.8,1.3-5.3,5.1-3.7,7.8c-.1,3.8.6,7.6.9,11.3s.9,9.1,1.2,13.6c.6,8.8.9,17.7.9,26.5,0,4.3-.1,8.6-.2,12.9s-1.6,9.9,2.2,13.2,9.2,2.5,14,2.3,11,0,15.6-2.1S433.2,283.3,428.2,282Z" transform="translate(42 40)"/><path class="cls-4" d="M137.4,135.2c-15.3-12.6-40.3-14.3-58.4-6.9-19.6,8.1-29.2,34.1-13.6,50.7,7.3,7.8,18.2,10.7,28.5,11.9,8.3.9,17.5,1.4,26-.4.4,3.9-.3,7.8-4.7,9.5s-3.1,9,2.3,8.2c11.2-1.7,22-13.1,20.1-24.5C154.7,172.1,152.5,147.5,137.4,135.2Z" transform="translate(42 40)"/><path class="cls-4" d="M271,343.2c-4.8-19.1-25.3-25.9-42.7-28.6a110.4,110.4,0,0,0-27.1-1h-1.9c-8.9.5-18.1,2.6-25.8,7.1-4.9-1.3-12.1-3.7-9.7-9.7s-5.7-7.7-8.6-3.6c-6.8,9.6-6.4,22.8,1,31.4-4.1,8.1-5.4,17.4-1.8,26.5,6.8,17.7,24.7,25.6,42.3,28.1s38.4,2.9,54.7-7C266.2,377.3,275.4,360.6,271,343.2Z" transform="translate(42 40)"/><path class="cls-4" d="M424.5,108.7c-13.4-16.5-39-19.8-58.9-17.3s-40.6,14.9-45.3,36.5a37.2,37.2,0,0,0-.7,11.9c-1,18.2,12.3,33.7,30.5,38.5,11.9,3.1,24.6,2.3,36.7.7h.9c-.3,1.3-.6,2.7-1,4.1v.4a18,18,0,0,1-5.2,6.9c-3.4,2.9.5,7.1,3.9,6.7a25.7,25.7,0,0,0,21.7-22.3,47.2,47.2,0,0,0,12.6-6C439.3,155.4,438.5,126,424.5,108.7Z" transform="translate(42 40)"/><path class="cls-5" d="M383.2,345.2l-1.2-2.1c7.1-8.5,7.2-21.2-2-29.4a5,5,0,0,0-8.5,3.5,19.1,19.1,0,0,1-4.3,11.1,66.1,66.1,0,0,0-25.8-8.9l-4.2-.4c-33.5-8.5-66.5,29.6-50.7,61.7s65.8,32.6,90.2,10.3C389.7,379.1,391.2,360.3,383.2,345.2Z" transform="translate(42 40)"/><path class="cls-6" d="M261.9,169.5c-.9-8.3-5.3-15.2-11.5-20.3a36.8,36.8,0,0,0-3.2-15.9c-5-11-15-18.3-26.2-22a5.7,5.7,0,0,0-2.1-1.3c-17.3-5.9-36.5-7.5-53.8-.7-15.4,5.9-28.7,17.3-33.1,33.7s1.3,33.2,15.2,43,29.2,10.6,44,10.2c17-.5,35.2-5.1,47-18.1a38.8,38.8,0,0,0,5-6.5.8.8,0,0,1,.2.4,7,7,0,0,0,1.1,3.7c.9,4.7.3,9.9-.1,14.1s3.9,5.5,6.4,3.7C258.3,187.9,262.9,179.1,261.9,169.5Z" transform="translate(42 40)"/><path class="cls-6" d="M164.1,344.1c-6.6-28.7-40.5-41.3-66.8-34.6a63.7,63.7,0,0,0-6.6,2.1,52.1,52.1,0,0,0-13.8,5,41.5,41.5,0,0,0-9.1,6.4c-3.2-5.4-3.5-12.4-4-18.8-.3-4-4.9-5-7.2-1.9-5.1,6.8-8.4,14.2-7.6,22.9a27.4,27.4,0,0,0,7,16.2,52.6,52.6,0,0,0-1.5,6c-2.1,13.7,3.3,26.2,14.6,34.3s24.6,9.8,37.3,10.9c15.2,1.3,31.2-.2,43.7-9.6S167.5,359.1,164.1,344.1Z" transform="translate(42 40)"/><path class="cls-5" d="M366.9,141.8c-2.8-11.7-11.1-22.1-22.4-26.5-7.3-2.9-15.8-2.5-23.6-.1-7.8.1-15.6,3.5-21.9,8.6-10.4,8.2-15.6,21.8-15.7,34.9a32.7,32.7,0,0,0,2.4,13,25.6,25.6,0,0,0-7.6,20.7c.4,4.4,5.9,6.2,8.4,2.3a39,39,0,0,1,8.7-9.8c10.3,9.1,25.7,13.2,39.5,10.4C358.6,190.5,372.4,164.8,366.9,141.8Z" transform="translate(42 40)"/><path class="cls-4" d="M454.7,356.5a40.8,40.8,0,0,0-13.6-21c3.2-16.1-10.1-29.4-24.8-34.6-4.5-1.6-7.3,4.5-4.4,7.5,4.7,5,5.8,11.2,5,17.3a49.1,49.1,0,0,0-17.5,1.1c-10.6.4-20,3.5-28.5,10.9a41.1,41.1,0,0,0-14.2,32c.3,11.4,5.1,23,14.2,30.2,11.2,9,27.1,9.9,40.9,8.6s25.9-5,34.6-14.9S458.1,369.3,454.7,356.5Z" transform="translate(42 40)"/></g><g id="DESIGNED_BY_FREEPIK" data-name="DESIGNED BY FREEPIK"><path d="M350.4,128.6a8.4,8.4,0,0,0,2.8-4.1c.8-3.1-1-7.8-4.9-7.1a6.5,6.5,0,0,0-9,4.2,6.7,6.7,0,0,0,4.9,8.3c-6.5,3.8-6.7,14.3-5.7,21a.5.5,0,0,0,.9.2.7.7,0,0,0,.6.9,181.2,181.2,0,0,0,19.5.1.9.9,0,0,0,.8-.8c0-.2.1-.3.1-.5C360.7,143.8,359.7,129.5,350.4,128.6Zm-6.6-.5a5.1,5.1,0,0,1-2.8-6.5c1.2-3.1,3.9-3,6.6-3.2a.7.7,0,0,0,.7.5c3.7-.4,4.1,4.2,2.8,6.6A5.7,5.7,0,0,1,343.8,128.1ZM340,150.6l-.5.2h0c-.2-7.1-.8-20.2,9.4-20.7s9.9,13.9,9.7,20.3A164.6,164.6,0,0,0,340,150.6Z" transform="translate(42 40)"/><path d="M417,147.1a69.7,69.7,0,0,0-3.3-14.9c-.7-2.1-1.8-4.2-3.8-4.8a6.9,6.9,0,0,0,2-3c1-3.8-1.8-7.5-5.5-8.4s-8.2,1.5-8.7,5.7a5.3,5.3,0,0,0,5.3,6,6.8,6.8,0,0,0-4.2,4.9c-1.4,4.7-1,11-.8,15.9a.7.7,0,0,0,1,.6l.3.2a79.7,79.7,0,0,0,16.2-.1.9.9,0,0,0,.8-1.2A.8.8,0,0,0,417,147.1Zm-17.6-25.6a5.5,5.5,0,0,1,6.9-3.8,5.3,5.3,0,0,1,4.1,5.5,4.1,4.1,0,0,1-6.3,3.2c-.4-.3-.7-.1-.8.1C400.8,126.2,398.8,124.1,399.4,121.5Zm.1,26.7c.4-5.9-1.7-17.7,5.4-19.9h.1a5.6,5.6,0,0,0,3.4-.1c5.3.9,6.4,15.1,6.9,19.2h.1C410.1,147.9,404.8,147.9,399.5,148.2Z" transform="translate(42 40)"/><path d="M401.7,107.3v1.1c-6.2-8.5-15.9-13.8-26.5-13.4s-23.2,6.1-25,16.7a.6.6,0,0,0,1.2.3c2.7-10.1,15.7-15.4,25.3-15.3a30.2,30.2,0,0,1,23.5,12.6l-1.1-.3-.6-.2a.9.9,0,0,0-.7,1.7,8.6,8.6,0,0,0,2.8,1l1.8.7a1,1,0,0,0,1.2-1v-3.9A1,1,0,1,0,401.7,107.3Z" transform="translate(42 40)"/><path d="M407.6,152.6a29.7,29.7,0,0,1-24,17.4c-9.5,1.2-23.4-.8-28.2-10.3l2.4,1.1a.9.9,0,0,0,.9-1.6,15.5,15.5,0,0,0-5.1-2.2,1,1,0,0,0-1.3.9V162a1,1,0,0,0,1.9.2.8.8,0,0,0,.1-.4c5.5,8.7,18.1,11.1,27.7,10.4,11.5-.8,23.4-7.4,26.7-19.1C408.9,152.5,407.9,152,407.6,152.6Z" transform="translate(42 40)"/><path d="M135.5,327c-1.1-4.5-1.8-7.8-6.9-8-6.9-.2-14.4,1.2-21.2,2-.3-2.5-.9-5.1-3.2-6.3s-10.1-.7-14.1-.6-9.3-.7-12.2,1.9-1.8,8.1-1.6,11.6-.6,8.7,2.1,11.1,7.2.9,9.9.3h0a6.2,6.2,0,0,1-3,4.8c-.5.3-.5,1.3.2,1.4a9.4,9.4,0,0,0,10.3-6.3H96c1.6-.1,4.1.1,6.4-.1.1,2.7-.6,5.5,2.8,6.6a14.5,14.5,0,0,0,5.5.1l9.1-1c2.4,3.5,7.2,4.8,11.3,3.5a.7.7,0,0,0,0-1.4,7.3,7.3,0,0,1-4.5-3.9c3,.4,7.4.8,9.4-1.6S136.3,330.5,135.5,327ZM96,337.1h-.1a.7.7,0,0,0-1.3.2,7.9,7.9,0,0,1-6.9,6.4,6.8,6.8,0,0,0,1.8-6,.5.5,0,0,0-1,0h-.4c-2.7.3-7.8,1.2-9.4-1.7s-.5-6.8-.7-9.4-1.2-8.2,3-10.2,8.1-.5,11-.6,6.4-.8,9.2-.1c4.8,1.2,4.4,6.2,4.7,10.3s1.4,6.8-.7,9.1S98.9,336.9,96,337.1Zm35.9,4c-1.8.6-4.1.4-6,.5h0c-.6-.3-1.3.1-1.1.8a9.2,9.2,0,0,0,3.6,4.6,9.8,9.8,0,0,1-7.6-3.2c.1-.4-.1-1-.7-.9h-.2c-.2-.1-.4-.1-.5.1l-10.1,1.1c-2.6.2-4.5.4-5.5-3.2a18.1,18.1,0,0,1-.3-2.3,5.6,5.6,0,0,0,4-1.9c1.6-2.1,1-6,.5-9.1h0a56.4,56.4,0,0,0,18.3-1.2h.8a.8.8,0,0,0,.8-.6v-.4a.7.7,0,0,0-.9-.9,110.2,110.2,0,0,1-19,1.9h-.2a7,7,0,0,0-.2-1.6,21.8,21.8,0,0,0-.1-2.5l10.6-.9,5.5-.5c3.2-.3,4.4-.9,7.2,1.1s2.5,3.1,3.2,6.1a61.7,61.7,0,0,1,1,6.2C135.4,337.6,135.2,339.9,131.9,341.1Z" transform="translate(42 40)"/><path d="M100.6,329.6a167.5,167.5,0,0,1-18.7,1.1.6.6,0,1,0,0,1.2,74.9,74.9,0,0,0,18.9-.8C101.6,331,101.4,329.5,100.6,329.6Z" transform="translate(42 40)"/><path d="M99.1,321.7a141.9,141.9,0,0,1-17.2,1.1.6.6,0,0,0,0,1.2,61.1,61.1,0,0,0,17.6-.7C100.6,323.2,100.2,321.5,99.1,321.7Z" transform="translate(42 40)"/><path d="M127.3,332.5a79.9,79.9,0,0,1-17.6,1.4.7.7,0,0,0,0,1.4,67.7,67.7,0,0,0,18-1.2C128.8,333.9,128.4,332.3,127.3,332.5Z" transform="translate(42 40)"/><path d="M92.3,378.3C91.2,372,89,363.5,82,361.9a5.1,5.1,0,0,0,2.6-3.1c1.2-4.1-2.1-7.5-5.9-8.2h0a6.6,6.6,0,0,0-7.5,4.2,6.2,6.2,0,0,0,4.4,8h.1c-4.8,3-5.7,11.6-5.1,16.7,0,.4.4.5.6.5a.5.5,0,0,0,.5.5,56,56,0,0,0,20-.8.7.7,0,0,0,.5-1A.6.6,0,0,0,92.3,378.3ZM75.7,361.1a4.4,4.4,0,0,1-2.7-6.2c.9-2,2.9-2.8,5-3h.3c2.8.8,5.8,3.1,4.8,6.4S78.2,361.8,75.7,361.1Zm-3.8,18h-.3c.4-5.8,1.5-17.7,10-15.5,6.4,1.6,7.9,8.7,8.9,14.4C84.3,378.7,78.2,379,71.9,379.1Z" transform="translate(42 40)"/><path d="M144.4,358a6.7,6.7,0,0,0,3.2-4.9,6.8,6.8,0,0,0-6.2-7.3h-.2a6.7,6.7,0,0,0-6.9,5.3,7.1,7.1,0,0,0,5.1,7.8c-5.8,2.9-6.4,11.9-5.6,17.9h0c-.2,2.1,1.2,2.9,3.2,2.9s5.6-1,8.4-1.2a64.7,64.7,0,0,1,8.8-.2l.5-.2c.5,0,.9-.2.9-.8C155.2,371.1,152.4,358.8,144.4,358Zm-8.3-6.6a5.3,5.3,0,0,1,4.6-4.2l.5.3c2.7.4,5.2,2.8,4.6,5.8a5.2,5.2,0,0,1-5.9,3.8A5.1,5.1,0,0,1,136.1,351.4Zm8.5,25.4c-1.3.2-7.5,1.6-9.3.7v-.2c0-3.5-.5-7.2.6-10.7s4.8-7.7,9.2-6.5c6.3,1.7,7.5,10.7,8.7,16.4A70.7,70.7,0,0,0,144.6,376.8Z" transform="translate(42 40)"/><path d="M199.3,344.6a11.9,11.9,0,0,0,4.2-14.8c-2.8-5.6-10.7-8-16-4.4a.8.8,0,0,0-.2.5.7.7,0,0,0-.4.7c0,5.2.4,10.3.8,15.5s.2,8.7,1.4,12.8c.2.4.8.5.9.1a24.3,24.3,0,0,0,8.9-.4c1.9-.5,3.8-1.3,4.7-3.2S202.4,345,199.3,344.6Zm.1,8.2c-3,.9-6.1.7-9.2.8.3-3.8-.3-7.7-.6-11.5s-.8-10.3-.9-15.5c0-.2,0-.3-.1-.4,4.6-1.6,10.2-.6,12.9,3.8s-.1,11.3-5,14.1a.8.8,0,0,0,.3,1.5l.4.2c1.8-.1,3.9.3,4.8,2.1S201.5,352.1,199.4,352.8Z" transform="translate(42 40)"/><path d="M197,347.2a4.2,4.2,0,0,0-3.3,0h0c-.3-.7-1.4-.4-1.1.3a1.4,1.4,0,0,0,.2.6c-.1.1,0,.3,0,.4a5.3,5.3,0,0,1,.2,2.2.4.4,0,0,0,.6.4q0,.2.3.3c1.6.4,4.4.4,4.6-1.8A2.4,2.4,0,0,0,197,347.2Zm.3,2.5c-.5,1.1-2.4.9-3.3.8h-.1a4.1,4.1,0,0,0,.1-2.2,4.2,4.2,0,0,1,2.2-.2C196.9,348.3,197.7,349,197.3,349.7Z" transform="translate(42 40)"/><path d="M192.4,326.7a.4.4,0,0,0-.7.2c0,.1,0,.1-.1.1s-.4,1.2.2,1.4a91.4,91.4,0,0,0,1.4,12.7.4.4,0,0,0,.2.8C202.7,344.2,201.6,323.5,192.4,326.7Zm2.2,14.1a88.7,88.7,0,0,0-1.7-12.6C198.5,326.3,200.8,339.4,194.6,340.8Z" transform="translate(42 40)"/><path d="M217.2,349.1h0a.5.5,0,0,0-.5-.5,21.1,21.1,0,0,0-3.6-.2c.1,0,.1-.1.1-.2-.2-7.7-.3-15.3-.4-23a.6.6,0,0,0-.2-1.2,35.4,35.4,0,0,0-4.6.2c-.2,0-.3.1-.3.2a.5.5,0,0,0-.4.6c.2,9.3.8,18.5,1.2,27.8a.7.7,0,0,0,.8.7l.4.2,4.3.2a4.4,4.4,0,0,0,3.2-.5C218.3,352.3,218.1,350.1,217.2,349.1Zm-2.7,3.4H210a255.7,255.7,0,0,0-1.5-27.7l2.9.2c0,7.7-.5,15.6.9,23.1a.4.4,0,0,0,.1.3.5.5,0,0,0,0,1,12.7,12.7,0,0,0,3.9,0c0,.5.2,1,.2,1.5S215.6,352.5,214.5,352.5Z" transform="translate(42 40)"/><path d="M235.6,352c-.7-6.8-1-14.1-2.5-20.8-.9-3.6-3.1-8.3-7.4-8.4s-5.1,2.8-5.5,5.8-.1,7.3,0,10.8.1,8.9.4,13.4a.6.6,0,0,0,1.2.3l3.2.2a.6.6,0,0,0,.4-1c.6-1.9-.8-3.8-.1-5.6s2.6-.2,3.1.9a6.4,6.4,0,0,1,.5,4.1.7.7,0,0,0,.7.8l.4.2a23.6,23.6,0,0,0,4.6.2.5.5,0,0,0,.4-.2C235.4,352.7,235.6,352.4,235.6,352Zm-5.4-.2c.5-2.5-.5-7.4-3.8-7.4a2.6,2.6,0,0,0-2.4,2.1c-.5,2,.8,3.7.5,5.6h0l-2.6.2c.1-4.3,0-8.6-.1-12.9,0-2.3-.1-4.5-.1-6.7v-2.6c-.4-3.9,1.9-5.4,7-4.3,3.5,2.7,3.4,9.7,3.8,13.4s.9,8.3,1.4,12.4Z" transform="translate(42 40)"/><path d="M229.1,330.8c-.4-1.2-1.1-2.4-2.5-2.3-4.3.1-2.5,8.2-1.9,10.6l.2.2h-.4c-.4.1-.3.8.1.8l3.5-.5c.3-.1.4-.3.4-.4h.6c.2.4.9.2.9-.3A23,23,0,0,0,229.1,330.8Zm-1.3,7.9-2.2.4h0c-.1-1.4-.3-2.8-.3-4.2s-.1-1.4-.1-2.1.3-4.9,2.4-2.3c.8.9.9,3.7,1,4.8s.2,2.4.4,3.5h-.7C228.1,338.7,228,338.6,227.8,338.7Z" transform="translate(42 40)"/><path d="M219.8,379.1a11.9,11.9,0,0,0,4.2-14.8c-2.8-5.7-10.7-8-16-4.4a.8.8,0,0,0-.2.4,1,1,0,0,0-.4.7c0,5.2.5,10.4.8,15.6s.3,8.7,1.5,12.8c.1.3.7.4.8,0a20.5,20.5,0,0,0,8.9-.4c1.9-.4,3.8-1.2,4.7-3.1A4.9,4.9,0,0,0,219.8,379.1Zm.1,8.1c-3,1-6.1.8-9.2.9.3-3.8-.3-7.7-.6-11.5s-.8-10.4-.9-15.6a.4.4,0,0,0-.1-.3c4.6-1.6,10.2-.7,12.9,3.7s-.1,11.4-5,14.1a.9.9,0,0,0,.4,1.6c0,.1.2.2.4.2s3.8.3,4.7,2S222.1,386.6,219.9,387.2Z" transform="translate(42 40)"/><path d="M217.6,381.6a4.2,4.2,0,0,0-3.3.1h-.1c-.3-.7-1.4-.4-1.1.3s.1.4.2.6a.4.4,0,0,0,.1.3,17.9,17.9,0,0,1,.2,2.3c-.1.3.3.4.5.3s.1.3.3.3,4.4.4,4.6-1.7A2.2,2.2,0,0,0,217.6,381.6Zm.2,2.6c-.5,1-2.4.8-3.3.8h-.1a4.1,4.1,0,0,0,.1-2.2,4.6,4.6,0,0,1,2.3-.3C217.4,382.7,218.2,383.4,217.8,384.2Z" transform="translate(42 40)"/><path d="M212.9,361.1c-.2-.2-.6,0-.6.3h-.2c-.7.3-.4,1.1.2,1.3a105,105,0,0,0,1.4,12.7.5.5,0,0,0,.2.9C223.2,378.6,222.1,357.9,212.9,361.1Zm2.3,14.2a110.9,110.9,0,0,0-1.8-12.7C219,360.7,221.3,373.8,215.2,375.3Z" transform="translate(42 40)"/><path d="M237.8,383.5h-.1c0-.3-.1-.5-.5-.5a14.3,14.3,0,0,0-3.6-.2v-.2c-.2-7.7-.3-15.4-.4-23.1a.6.6,0,0,0-.2-1.2,35.5,35.5,0,0,0-4.6.3c-.2,0-.3.1-.3.2a.7.7,0,0,0-.4.6c.2,9.2.8,18.5,1.2,27.8,0,.5.5.7.9.7h.3a31.1,31.1,0,0,0,4.3.3c1.1,0,2.3.2,3.2-.5S238.6,384.6,237.8,383.5Zm-2.7,3.5h-4.6a255.6,255.6,0,0,0-1.4-27.7l2.8.2c0,7.6-.4,15.6.9,23.1,0,.1,0,.2.1.2s-.5,1,0,1.1a12.8,12.8,0,0,0,3.9-.1c0,.6.2,1,.2,1.5S236.1,387,235.1,387Z" transform="translate(42 40)"/><path d="M256.1,386.5c-.7-6.9-.9-14.2-2.5-20.9-.9-3.5-3.1-8.2-7.3-8.4s-5.2,2.9-5.6,5.8,0,7.3,0,10.8.1,9,.4,13.4a.7.7,0,0,0,1.2.4h3.2c.6.1.7-.6.5-.9.5-1.9-.8-3.9-.1-5.7s2.6-.1,3.1,1a6.8,6.8,0,0,1,.4,4c0,.5.4.9.7.8s.2.3.4.3a35.4,35.4,0,0,0,4.6.2.5.5,0,0,0,.4-.2A.7.7,0,0,0,256.1,386.5Zm-5.4-.2c.5-2.6-.5-7.4-3.8-7.4a2.5,2.5,0,0,0-2.4,2.1c-.5,1.9.8,3.7.5,5.6h0l-2.6.2c.1-4.3,0-8.7-.1-13,0-2.2-.1-4.4-.1-6.7v-2.5c-.4-3.9,2-5.4,7-4.3s3.4,9.7,3.8,13.4.9,8.3,1.5,12.4Z" transform="translate(42 40)"/><path d="M249.6,365.3c-.4-1.2-1.1-2.4-2.5-2.4-4.3.2-2.4,8.3-1.8,10.7v.2H245c-.4.1-.3.8.1.7a13.4,13.4,0,0,0,3.5-.5.4.4,0,0,0,.4-.4h.6c.2.4.9.2,1-.3A25.3,25.3,0,0,0,249.6,365.3Zm-1.3,7.8-2.2.5h0l-.3-4.2c0-.7-.1-1.4-.1-2.1s.3-4.9,2.5-2.4.8,3.8.9,4.9.2,2.3.4,3.5h-1.2Z" transform="translate(42 40)"/><path d="M92.3,162.6a11.9,11.9,0,0,0,4.2-14.8c-2.8-5.6-10.7-8-16-4.4a.8.8,0,0,0-.2.5.7.7,0,0,0-.4.7c0,5.2.4,10.3.8,15.5s.2,8.7,1.4,12.8c.2.4.8.4.9.1a24.2,24.2,0,0,0,8.9-.4c1.9-.5,3.8-1.3,4.7-3.2S95.4,163,92.3,162.6Zm.1,8.2c-3,.9-6.1.7-9.2.8.3-3.8-.3-7.7-.6-11.5s-.8-10.3-.9-15.5c0-.2,0-.3-.1-.4,4.6-1.6,10.2-.7,12.9,3.8s-.1,11.3-5,14c-.7.4-.3,1.5.3,1.6l.5.2c1.7-.1,3.8.3,4.7,2.1S94.6,170.1,92.4,170.8Z" transform="translate(42 40)"/><path d="M90,165.1a4.4,4.4,0,0,0-3.2.1h-.1c-.3-.7-1.4-.4-1.1.3a1.4,1.4,0,0,0,.2.6.6.6,0,0,0,.1.4,7.9,7.9,0,0,1,.1,2.2.4.4,0,0,0,.6.4l.3.3c1.6.4,4.4.4,4.6-1.8A2.5,2.5,0,0,0,90,165.1Zm.3,2.6c-.5,1-2.4.9-3.3.8h-.1a4.1,4.1,0,0,0,.1-2.2,4.2,4.2,0,0,1,2.2-.2C89.9,166.3,90.7,166.9,90.3,167.7Z" transform="translate(42 40)"/><path d="M85.4,144.6c-.2-.1-.6,0-.6.3h-.2c-.7.3-.4,1.2.2,1.4A88.3,88.3,0,0,0,86.2,159c-.3.3-.3.8.2.9C95.7,162.2,94.6,141.4,85.4,144.6Zm2.3,14.2a106.2,106.2,0,0,0-1.8-12.6C91.5,144.3,93.8,157.4,87.7,158.8Z" transform="translate(42 40)"/><path d="M110.2,167h0a.5.5,0,0,0-.5-.5,21.1,21.1,0,0,0-3.6-.2c.1,0,.1-.1.1-.2-.2-7.7-.3-15.3-.4-23a.7.7,0,0,0-.2-1.3l-4.6.3c-.2,0-.3.1-.3.2a.5.5,0,0,0-.4.6c.2,9.3.8,18.5,1.2,27.8a.7.7,0,0,0,.8.7h.4a31.1,31.1,0,0,0,4.3.3c1.1,0,2.3.2,3.2-.5S111.1,168.1,110.2,167Zm-2.6,3.5H103a232.6,232.6,0,0,0-1.5-27.7l2.9.2c0,7.7-.5,15.6.9,23.1a.4.4,0,0,0,.1.3.5.5,0,0,0,0,1,12.8,12.8,0,0,0,3.9,0c0,.5.2.9.2,1.5S108.6,170.5,107.6,170.5Z" transform="translate(42 40)"/><path d="M128.6,170c-.7-6.8-1-14.1-2.5-20.8-.9-3.6-3.1-8.3-7.3-8.5s-5.2,2.9-5.6,5.9,0,7.2,0,10.8.1,8.9.4,13.4a.6.6,0,0,0,1.2.3l3.2.2a.6.6,0,0,0,.4-1c.6-1.9-.8-3.9-.1-5.7s2.6-.1,3.1,1a6.4,6.4,0,0,1,.5,4.1.7.7,0,0,0,.7.8l.4.2a35.4,35.4,0,0,0,4.6.2l.4-.2C128.4,170.7,128.6,170.4,128.6,170Zm-5.4-.2c.5-2.5-.5-7.4-3.8-7.4a2.6,2.6,0,0,0-2.4,2.1c-.5,2,.8,3.7.5,5.6h0l-2.6.2c.1-4.3,0-8.6-.1-12.9,0-2.3-.1-4.5-.1-6.7v-2.6c-.4-3.9,2-5.4,7-4.3,3.5,2.7,3.4,9.7,3.8,13.4s.9,8.3,1.4,12.4Z" transform="translate(42 40)"/><path d="M122.1,148.8c-.4-1.2-1.1-2.4-2.5-2.3-4.3.1-2.4,8.2-1.9,10.6.1.1.1.2.2.2h-.4c-.4.1-.3.8.1.8l3.5-.5a.5.5,0,0,0,.4-.5h.6c.2.4.9.2.9-.3A23,23,0,0,0,122.1,148.8Zm-1.3,7.8-2.2.5h0c-.1-1.4-.3-2.8-.3-4.2s-.1-1.4-.1-2.1.3-4.9,2.5-2.3c.7.9.8,3.7.9,4.8s.2,2.4.4,3.5h-.7Z" transform="translate(42 40)"/><path d="M226.6,135.8a8.2,8.2,0,0,0-9.3-5.3h-.1c-2.4-6.7-5.5-14-12.6-16.5a.5.5,0,0,0-.6.4,4.4,4.4,0,0,0-4.5,2.4,4.2,4.2,0,0,0,.9,5.1l.3.2a80,80,0,0,1-18.1,17.2,4.1,4.1,0,0,0-1.3-1c-1.9-.7-5.7.8-7.5,1.2s-6.3,1.5-9.5,2.4-6.9,1.4-8.4,4.7h0a.5.5,0,0,0-.3.5c.2.7.3,1.4.5,2.1a.6.6,0,0,0-.6,0c-3.9,2.8-6.4,7.8-4.7,12.6a7.4,7.4,0,0,0,10.1,4.4h0c.7,2,1.4,3.3,3.7,3.5a19.1,19.1,0,0,0,5.2-.5c.7,3,1.6,6.1,2.5,9.1s1.4,6.8,2.9,9.6,4.3,3.6,7.7,2.8,4.6-1.3,4.2-4-2.9-6.1-3.7-8.7a55.6,55.6,0,0,1-2.7-11.4c-.1-1.1-1.7-.7-1.6.3a67.3,67.3,0,0,0,2.7,11.6c.6,1.6,1.3,3.3,2,4.9s2.7,4.1-1.2,5.8c-6,2.5-7.4-6.5-8.6-10.4s-2-6.6-3.2-9.9c3-.8,6-2.1,8.5-2.9s7.4-1.8,8.1-5.5-1.4-10.2-2.3-14.4a24.7,24.7,0,0,0-1.8-5.9A54.6,54.6,0,0,0,203,122.1c4.2,5.8,6.7,11.7,8.9,18.8s5.2,13.7,5,20.7h-.2c-9.3-1.6-19.8-2.3-29.1,0a.6.6,0,0,0,.1,1.1c9.5-.1,18.5-.6,27.9.6a4.2,4.2,0,0,0,2.8,4.1,4.7,4.7,0,0,0,5.3-1.3v-.2c.2-.1.5-.2.6-.5,1.4-4.4.2-8.8-.8-13.2-.7-2.8-1.4-5.6-2.2-8.4C225.7,144.1,227.8,139.6,226.6,135.8Zm-66.5,29c-4.4,2.1-8.4-1.9-8.2-6.3s2.1-6,4.4-8.3h0c1.2,4.9,2.4,9.9,4.1,14.7Zm22.7-1.9c-2.7,1.8-7,2.6-10.2,3.5s-7.7,2.9-10-.5-2.2-7.4-3.2-10.4-1.7-5.1-2.6-7.7a.7.7,0,0,0,.7-.4c1.7-3.1,7.9-3.9,11-4.7s8.1-2.8,11.5-1.3,2.7,2.6,3.3,5.1.6,3,.8,4.5C185,155.2,187.3,160,182.8,162.9Zm40.1,1.9-.2.2a3.5,3.5,0,0,1-4,1,4.2,4.2,0,0,1-2.1-2.6h.3a.9.9,0,0,0,1.6-.4c1.3-8.3-3.2-17.4-5.6-25.1s-4.8-13.5-10.5-18.3c-.5-.4-1,.4-.7.8l.3.4-.4.2-.3.4c0-.1,0-.1-.1-.2a3.7,3.7,0,0,1-.3-3.8c.7-1.3,1.8-1.5,3.1-1.7a.8.8,0,0,0,.5-.7c7.6,4.7,10.2,13.4,12.8,21.5,1.4,4.3,2.7,8.8,3.8,13.2S224.1,159.9,222.9,164.8Zm-1.7-22.7h-.3c-.8-2.9-1.7-5.9-2.7-8.8l-.6-1.7a8,8,0,0,1,6.3,2.7C226,137,225.6,142.6,221.2,142.1Z" transform="translate(42 40)"/><path d="M249.4,128c-5.9,1.5-11.8,3.2-17.7,4.9-.5.2-.4,1,.2.9,6-1.3,11.9-2.8,17.8-4.4C250.5,129.2,250.3,127.8,249.4,128Z" transform="translate(42 40)"/><path d="M235.2,109.5a103.8,103.8,0,0,0-9.7,14.7c-.3.4.3.8.6.4,3.3-4.9,6.7-9.6,10.4-14.3C237.1,109.5,235.8,108.7,235.2,109.5Z" transform="translate(42 40)"/><path d="M247.6,150.5c-5.8-1.5-11.5-3.5-17.3-4.9a.6.6,0,0,0-.4,1.2c5.6,2.1,11.4,3.6,17.1,5.6A1,1,0,0,0,247.6,150.5Z" transform="translate(42 40)"/><path d="M439.8,388.1c0-5.5-.1-11.1-6.7-12-4.2-.5-8.7.3-12.8.6l-16.7,1.1h0c.1-1.5,0-3.1,0-4.7a19.8,19.8,0,0,0-.3-3.5l14.9-.2c3.8-.1,8.1.3,11.8-.5,6.4-1.5,6.4-6.8,6.6-12.4s1.6-16.6-3.8-20.9-13.6-2.6-19.4-2.4a253.8,253.8,0,0,0-28.8,2.2c-6.8.8-10.2,1.6-11.1,9-.6,5.7-1.8,14.7,2.5,19.4s13.6,3.7,20,3.7a55.7,55.7,0,0,0,.3,10c-4.9-.6-11.1-1.7-15.6.1s-4.9,6-4.6,10.3.7,10.6,3.6,13.6,11.8,1.2,15.9.2c1.2,6.7,7.1,11.6,13.7,12.4.8.1,1.1-1,.7-1.4a24.7,24.7,0,0,1-6.4-10.9,146.8,146.8,0,0,0,28.1-.9C439.7,399.8,439.9,395.4,439.8,388.1Zm-6.7,10.7c-3.1.9-6.9.8-10.1,1-6.6.5-13.2.7-19.8.7-.3,0-.4.2-.5.4a.8.8,0,0,0-.8,1,25,25,0,0,0,5.1,10,15.6,15.6,0,0,1-10.5-11.6c-.1-.3-.5-.4-.8-.4h-.6c-4.4,1-11.3,2.9-14.7-1.1-2-2.3-2.3-9-2.4-11.7-.3-6.4,3.1-8.2,8.5-8.2,3.4,0,6.7.2,10.1.1a.8.8,0,0,0,1.3-.3.6.6,0,0,0,0-.6,53.3,53.3,0,0,0-.9-11.3c0-.3-.2-.4-.5-.4l-.3-.2c-6-.7-13.5,1.2-18.2-3.4s-3.2-12.8-2.5-18.3c1-8.6,13-7.6,19.7-8.2s12.1-.9,18.2-1.1,12.6-1.3,17.1,1.3,4.2,13.7,4.1,19.2c0,3.9.5,9.2-4,11-2.6,1-5.8.7-8.6.7l-18.8.4a.9.9,0,0,0-.8,1.4,13.6,13.6,0,0,0-.4,4c0,1.6-.1,3.3,0,4.9a.7.7,0,0,0,.7.7c0,.5.3,1.1.9,1l19.6-1.3a80.8,80.8,0,0,1,8.5-.5c5.9.3,6.2,5.6,6.3,10.2S439,397.1,433.1,398.8Z" transform="translate(42 40)"/><path d="M428.9,354c-15.4.7-31.2.7-46.5,2.6-.4.1-.4.7,0,.7,15.4.5,31.1-1.2,46.5-2C429.8,355.3,429.8,353.9,428.9,354Z" transform="translate(42 40)"/><path d="M424.8,343.1l-40.3,3.3c-.6,0-.6,1.1,0,1,13.5-.9,26.9-1.7,40.3-2.7C425.8,344.6,425.8,343,424.8,343.1Z" transform="translate(42 40)"/><path d="M435.2,391.7c-17.1,1.3-34.1,2.6-51.1,4.2-.5.1-.5.9,0,.9,17.1-.9,34.1-2.2,51.1-3.5C436.2,393.2,436.2,391.7,435.2,391.7Z" transform="translate(42 40)"/><path d="M432.3,382.9a307.4,307.4,0,0,0-47.9,3.9c-.4,0-.3.9.1.8,16-1.6,31.8-2.6,47.8-3C433.3,384.5,433.3,382.9,432.3,382.9Z" transform="translate(42 40)"/></g></g></svg>