<svg id="Слой_1" data-name="Слой 1" xmlns="http://www.w3.org/2000/svg" xmlns:xlink="http://www.w3.org/1999/xlink" viewBox="0 0 2523.1 2000"><defs><style>.cls-1{fill:#fff;}.cls-2{fill:url(#linear-gradient);}.cls-3{fill:#eea886;}.cls-4{fill:#dbd8e3;}.cls-5{fill:#323657;}.cls-6{fill:#eea987;}.cls-7{fill:#d44040;}.cls-8{fill:#c4c1cc;}.cls-9{fill:#16202e;}.cls-10{fill:#a77860;}.cls-11{fill:#4ca1f4;}.cls-12{opacity:0.69;}.cls-13{fill:#d9d9d9;opacity:0.72;}.cls-14{fill:#e8734d;}.cls-15{fill:#efaa88;}.cls-16{fill:#ffc955;}.cls-17{fill:url(#linear-gradient-2);}.cls-18{fill:#cfa345;}.cls-19{fill:#e0e0e0;}.cls-20{fill:#377b93;}.cls-21{fill:#e6e6e6;}.cls-22{fill:#4e8c63;}.cls-23{fill:url(#linear-gradient-3);}.cls-24{fill:#706865;}.cls-25{fill:#ccbdb7;}.cls-26{fill:#ffab55;}.cls-27{fill:#b59074;}.cls-28{fill:#ead8cf;}.cls-29{fill:#da9b5b;}.cls-30{fill:#424773;}.cls-31{fill:#292c47;}.cls-32{fill:#3a3f47;}.cls-33{fill:#e2d2ca;}.cls-34{fill:#918783;}.cls-35{fill:#5e5854;}.cls-36{fill:#bfb2ac;}.cls-37{fill:url(#linear-gradient-4);}.cls-38{fill:#f5f7ff;}.cls-39{fill:#cecfd6;}.cls-40{fill:#2e436e;}.cls-41{fill:#eef0f7;}.cls-42{fill:#d9c7c1;}.cls-43{fill:#c78d71;}.cls-44{fill:#eddad3;}.cls-45{fill:#5073ab;}</style><linearGradient id="linear-gradient" x1="351.3" y1="913.3" x2="1796.87" y2="913.3" gradientUnits="userSpaceOnUse"><stop offset="0" stop-color="#9a5cff"/><stop offset="0.99" stop-color="#4059bf"/></linearGradient><linearGradient id="linear-gradient-2" x1="233.77" y1="1680.14" x2="1851.18" y2="1680.14" xlink:href="#linear-gradient"/><linearGradient id="linear-gradient-3" x1="510.36" y1="1558.36" x2="602.8" y2="1558.36" gradientUnits="userSpaceOnUse"><stop offset="0" stop-color="#ff9f55"/><stop offset="1" stop-color="#ffd255"/></linearGradient><linearGradient id="linear-gradient-4" x1="515.41" y1="1448.69" x2="725.51" y2="1448.69" xlink:href="#linear-gradient-3"/></defs><title>manager</title><rect class="cls-1" width="2523.1" height="2000"/><path class="cls-2" d="M1773.1,872,422.7,92.4C391,74.1,351.3,97,351.3,133.7V1692.9c0,36.7,39.7,59.6,71.4,41.3L1773.1,954.5C1804.8,936.2,1804.8,890.4,1773.1,872Z" transform="translate(0)"/><path class="cls-1" d="M465,704.4a154.7,154.7,0,0,0,22,37.3l-13.1,27.6,26.5,19.9L527,809.1l22.7-20.4a153.6,153.6,0,0,0,42,10.8l10.2,28.8,32.8-4.7,32.9-4.7,1.7-30.5a151.8,151.8,0,0,0,37.3-22.1l27.5,13.2L754,752.9l19.9-26.5-20.3-22.8a155.6,155.6,0,0,0,10.8-41.9l28.7-10.2-4.7-32.8-4.7-32.9-30.4-1.7a155,155,0,0,0-22.1-37.3l13.1-27.5-26.5-19.9-26.5-19.9-22.8,20.3a153.6,153.6,0,0,0-42-10.8l-10.1-28.7L583.5,465l-32.8,4.6L549,500.1a151.8,151.8,0,0,0-37.3,22.1L484.1,509l-19.9,26.6-19.9,26.5,20.4,22.8a151.8,151.8,0,0,0-10.8,42L425.1,637l4.7,32.9,4.7,32.8ZM592.7,529.2a116.2,116.2,0,1,1-98.6,131.5A116.3,116.3,0,0,1,592.7,529.2Z" transform="translate(0)"/><path class="cls-1" d="M458.7,381.7a71.4,71.4,0,0,0,10.1,17.1l-6,12.6,12.2,9.1,12.1,9.2,10.5-9.3a72.2,72.2,0,0,0,19.2,4.9l4.7,13.2,15-2.2,15.1-2.1.8-14a73.4,73.4,0,0,0,17.1-10.1l12.6,6,9.1-12.1,9.1-12.2L591,381.3a72.4,72.4,0,0,0,5-19.2l13.1-4.7-2.1-15-2.2-15.1-13.9-.8a70.7,70.7,0,0,0-10.1-17l6-12.7-12.2-9.1-12.1-9.1L552,287.9a69.5,69.5,0,0,0-19.2-4.9l-4.7-13.2-15,2.1L498,274.1l-.8,13.9a73.7,73.7,0,0,0-17.1,10.2l-12.6-6.1-9.1,12.2-9.2,12.2,9.4,10.4a73.4,73.4,0,0,0-5,19.2l-13.2,4.7,2.2,15.1,2.1,15Zm58.6-80.3a53.3,53.3,0,1,1-45.2,60.3A53.2,53.2,0,0,1,517.3,301.4Z" transform="translate(0)"/><path class="cls-3" d="M1481.8,769.5s81.2-26.4,87.8-23.4,7.5,7.6,0,10.4-77.9,27.8-77.9,27.8,100.4-14.4,106.4-13.3c3.5.7,5.7,9.5,1.8,11.4S1497,804.6,1497,804.6s93.7-13.3,98.4-10.8,4.2,11-2.8,12.5l-93.4,19s68.6-5.2,71.2-.5c1.6,2.8,3.9,10.4-13.8,11.1s-59.6,7.2-59.6,7.2Z" transform="translate(0)"/><path class="cls-3" d="M1392.3,815s26.3-10.4,28.2-27c1.6-14.1,13.3-31.6,16.9-37,4.8-7.2,12-34.8,20.4-28.9s-9.8,45.9-12,55,33.6-10.3,42.6-8.5,33.4,64.6,7.4,75-59.4,3.8-63.7,6.6-18.6,8.3-18.6,8.3Z" transform="translate(0)"/><path class="cls-4" d="M1075.5,1286.5c.6,7.6,1.2,14.9,1.8,21.3H701.2c.1-6.3.3-13.5.4-21.3,1.3-62.7,3.1-165.5,2.3-204.3-1-55.4-12.7-199.4-15-207.7,0,0-82.5-119.9-169.1,116.7-17.8,48.8,146,171,125.6,174.8s-19.5,42.4-19.5,42.4-154.2-134.4-151.1-174c1.8-22,122.6-341.5,141-354.7,12.6-9.1,91.6-40.7,132.6-56.3,18.9-7.2,33.4-12.2,36.3-12.4,9.4-.6,125,10.5,125,10.5s16.5,5.6,33.5,13.4c28.9,13.3,74,34.1,106.3,49.4,10.4,5,23.5,11.7,34.3,17.5q-2,58.8-6.9,126.4s-6,98.3-6.6,197.6c-5.2,22.5-4.3,74.7-4.3,74.7-1.4,49.6,4.1,100.4,5.5,128.8C1072.4,1247.1,1073.9,1267.9,1075.5,1286.5Z" transform="translate(0)"/><path class="cls-5" d="M1091.7,1286.5c-5.4-35.1-10.6-71.7-14.8-106.7v-.3l-2.1-17v-.8c-2.8-23.7-5-46.4-6.6-67.2-1.2-15.9-.1-31.4,2.1-46.7,6.4-106.2,9.6-218.1,9.6-218.1,3.4-45.9,5.4-88.7,6.7-128.7,0,0-145.1-68.5-158.3-72.5,0,0,27.5,64.7,48.1,209.1,8,55.5,22.7,148.9,33.4,244.2,4.2,37.6,11.1,75.7,17.7,111.5,6.3,33.8,12.2,65.6,15.4,93.2a44.3,44.3,0,0,1,.6,5.1c.5,4.7,1.1,10.2,1.8,16.2h49.8C1093.9,1300.8,1092.8,1293.7,1091.7,1286.5Z" transform="translate(0)"/><path class="cls-5" d="M836.1,1117.6c-6.6,64.1-13.8,115.9-19.6,168.9-.8,7.1-1.6,14.2-2.3,21.3H661.6c2-7,3.9-14.1,5.8-21.3,16.4-61.7,29.4-124.7,29.4-163,0,0-31.7-228.4-42.4-265.2,0,0-96,71.1-118.5,120.3-20,43.9,127.1,178.3,125.4,182.8-10,26.5-48.3,74.8-48.3,74.8S385.1,991.5,388.1,961.3c2.2-22,193.3-265.9,211.7-279.1,10.7-7.7,89.6-35.6,128.3-50.9l36.5-13.9c8.2,9.1,65.9,71.2,85.9,307.3C853.9,964.5,843.3,1048.8,836.1,1117.6Z" transform="translate(0)"/><path class="cls-6" d="M795.4,623.3s-.8-39.7-16.1-119.9C775.2,481.9,904,559.9,904,559.9s-.4,7.5-.6,17.7c-.2,5.3-.2,11.4-.2,17.5,0,2.2,0,4.3.1,6.5.1,5.6.4,11.1.8,15.7s3.3,13.2,4.3,15.5C913.8,645,838.8,654.3,795.4,623.3Z" transform="translate(0)"/><path class="cls-7" d="M875.8,664.8l21.4,28.7s-12.6,16.8-34.8,4.4Z" transform="translate(0)"/><path class="cls-7" d="M891.4,694.7s81,311.8,64.3,554.5l-27.2,48L903,1246.9s-7-434.1-29.2-553Z" transform="translate(0)"/><path class="cls-6" d="M898.7,638.1l-22.9,26.7s-36.7-7.1-47.5-26.2S898.7,638.1,898.7,638.1Z" transform="translate(0)"/><path class="cls-8" d="M903.9,614.7s-2.6,20.4-28.1,50.1l27.8,37.4,15-77.5Z" transform="translate(0)"/><path class="cls-8" d="M793.3,595.3s45.4,54.9,82.5,69.5l-17.3,42.7-86.3-92.8Z" transform="translate(0)"/><path class="cls-5" d="M1460.6,859.5s-195.7,212.7-241.9,201.3c-21.4-5.3-53.7-42.1-80.5-76.8-8.8-11.4-17.4-23.3-25.6-35.2h0c-32.8-47.4-58.5-92.8-58.5-92.8s-96.9-113.5-19.2-164.2c0,0,32.8-3.3,51.4,10.5s59.1,92.6,65.9,107.5,59.7,119.3,64.7,122.3,56.8-28,84.6-46.7c44.9-30.2,101.2-82.9,101.2-82.9Z" transform="translate(0)"/><path class="cls-3" d="M971.9,362.4s28.3,52.5,14.2,60.6c-11.5,6.8,13.6,58.3,16.9,66.7s-21,14.5-26.1,19.9-20.5,72-40.5,74-110.1-29.3-134.6-54.8S757.1,388,773.5,339.4,921.9,270.8,971.9,362.4Z" transform="translate(0)"/><path class="cls-9" d="M977.5,373.8s28.9-56.7-23.6-98.7-149.2,31.7-160.1,34.5-72.8,7.1-41.5,115.7c26.8,93.3,30.5,97.2,30.5,97.2s20.1-54,31.4-62.2c17.7-12.9,56.6-9.8,56.6-9.8s-18.5-49.2,10.4-56.1S948.3,362.9,977.5,373.8Z" transform="translate(0)"/><path class="cls-3" d="M840,422.3c-2.6-6.7-10.8-35.7-35.7-18.7s15.5,71.7,19.8,72.4S861.4,479.1,840,422.3Z" transform="translate(0)"/><path class="cls-10" d="M903.2,595.1c0,2.2,0,4.3.1,6.5-73.7-24.8-88-62-88-62,23,16.3,88.1,38,88.1,38C903.2,582.9,903.2,589,903.2,595.1Z" transform="translate(0)"/><path class="cls-3" d="M634.7,1160.6s7,5.8,14.4,5.8c12.7-.1,27.3-14,40.6-1.4s-14.7,66.2-24.8,72.4-33.1-5-57.7-34.7S634.7,1160.6,634.7,1160.6Z" transform="translate(0)"/><path class="cls-3" d="M684.6,1161.4a537.1,537.1,0,0,1,53.3,22.3c24.1,11.8,52.4,29.7,49.5,35.8-4.3,9.3-25.9-8.1-50.6-18.1-22.7-9.3-19.8-3.6-19.8-3.6s-.7-1.7,22.1,13.3c24.5,16.1,50.2,34.4,47.9,39.4s-3.7,6.8-13.5,2.5c5.1,3.7,4.8,5.7,3.4,8-7,11.9-46.8-6-62.5-13.1,12.1,5.5,20.3,10.9,11.3,15.4s-65.4-22.7-86.1-30.8C617.1,1223.7,684.6,1161.4,684.6,1161.4Z" transform="translate(0)"/><path class="cls-5" d="M661.3,1161.4s-5.6,32.8-48.3,74.8c0,0-97.9-108-115.3-128.2l76.5-44.4Z" transform="translate(0)"/><rect class="cls-1" x="440.9" y="1286.5" width="1346.8" height="21.31"/><rect class="cls-11" x="1079.4" y="426.6" width="88.2" height="88.16" rx="17.5"/><g class="cls-12"><rect class="cls-13" x="1200.6" y="309.9" width="305.1" height="27.38" rx="9.1"/><rect class="cls-13" x="1200.6" y="354.1" width="347.6" height="27.38" rx="9.1"/></g><rect class="cls-11" x="1079.4" y="301.6" width="88.2" height="88.16" rx="17.5"/><g class="cls-12"><rect class="cls-13" x="1200.6" y="434.9" width="229.3" height="27.38" rx="7.9"/><rect class="cls-13" x="1200.6" y="479.1" width="282" height="27.38" rx="8.2"/></g><g class="cls-12"><rect class="cls-13" x="1200.6" y="559.9" width="332.7" height="27.38" rx="9.5"/><rect class="cls-13" x="1200.6" y="604.2" width="305.1" height="27.38" rx="8.5"/></g><rect class="cls-11" x="1079.4" y="551.6" width="88.2" height="88.16" rx="17.5"/><path class="cls-1" d="M1120.5,492,1096,470.8a4.8,4.8,0,0,1-.4-6.8,4.7,4.7,0,0,1,6.7-.5l17.3,15,24.6-27.5a4.8,4.8,0,1,1,7.2,6.4Z" transform="translate(0)"/><path class="cls-1" d="M1120.5,617,1096,595.8a4.8,4.8,0,0,1,6.3-7.3l17.3,15,24.6-27.5a4.9,4.9,0,0,1,6.8-.4,4.8,4.8,0,0,1,.4,6.8Z" transform="translate(0)"/><path class="cls-1" d="M1121.9,356.4l-.2-1.9c-.4-4,.9-8.4,4.6-12.9s5.3-6.9,5.3-10.2-2.4-6.4-7.1-6.4a12.9,12.9,0,0,0-7.6,2.3l-1.7-4.7c2.4-1.8,6.7-3,10.6-3,8.6,0,12.5,5.3,12.5,10.9s-2.9,8.8-6.4,13-4.5,7.2-4.3,11v1.9Zm-1.7,10.5a4.4,4.4,0,0,1,4.5-4.7c2.6,0,4.4,1.9,4.4,4.7a4.5,4.5,0,1,1-8.9,0Z" transform="translate(0)"/><rect class="cls-11" x="1703" y="1049.9" width="88.2" height="88.16" rx="17.5"/><g class="cls-12"><rect class="cls-13" x="1824.2" y="933.1" width="305.1" height="27.38" rx="9.1"/><rect class="cls-13" x="1824.2" y="977.4" width="347.6" height="27.38" rx="9.1"/></g><rect class="cls-11" x="1703" y="924.8" width="88.2" height="88.16" rx="17.5"/><g class="cls-12"><rect class="cls-13" x="1824.2" y="1058.1" width="229.3" height="27.38" rx="7.9"/><rect class="cls-13" x="1824.2" y="1102.4" width="282" height="27.38" rx="8.2"/></g><path class="cls-1" d="M1744.1,1115.3l-24.5-21.3a4.8,4.8,0,0,1-.4-6.8,4.9,4.9,0,0,1,6.8-.5l17.3,15.1,24.5-27.5a4.8,4.8,0,0,1,7.2,6.4Z" transform="translate(0)"/><path class="cls-4" d="M1424.7,1503.9c4,17.6,3.3,58.6,3.3,58.6,1.1,38.9-3.2,78.9-4.3,101.2,0,.7-.1,1.3-.1,2-.3,5.3-.6,10.9-1,16.5h291q-.1-8-.3-16.5c-.6-32.9-1.1-69-1.2-94.7,66.5-17.6,138.3-40.5,137-57.2s-53.2-271.3-67.7-281.6c-9.9-7.1-71.9-32-104-44.2-14.9-5.6-26.3-9.6-28.6-9.7-7.3-.5-98,8.2-98,8.2s-13.1,4.5-26.3,10.6c-22.7,10.4-58.1,26.7-83.5,38.7-8.2,3.9-18.4,9.2-27,13.7q1.6,46.2,5.5,99.2S1424.2,1425.9,1424.7,1503.9Zm288.3,29.3c3.6-48.3,18.1-131.4,19.8-137.3l6.8,6.5,2.3.3a18,18,0,0,1,2.1.8s44,61.5,44.5,94.6C1788.7,1513.8,1754.3,1525.1,1713,1533.2Z" transform="translate(0)"/><path class="cls-5" d="M1411.8,1682.2h38.1c.9-5.3,1.8-10.8,2.8-16.5,6.5-36.4,15-77.5,19.5-117.9h0c8.4-74.8,19.9-148.1,26.1-191.6,16.2-113.4,37.8-164.2,37.8-164.2-10.3,3.1-124.2,56.9-124.2,56.9,1,31.4,2.6,65,5.2,101,0,0,2.5,87.9,7.6,171.3a164.8,164.8,0,0,1,1.6,36.6c-1.3,16.3-3,34.1-5.1,52.7a2,2,0,0,0-.1.7c-.5,4.4-1.1,8.8-1.6,13.3v.2c-1.6,13.5-3.5,27.3-5.4,41C1413.4,1671.3,1412.6,1676.8,1411.8,1682.2Z" transform="translate(0)"/><path class="cls-5" d="M1520.8,1556.8c8.7,20.5,38.5,70.9,38.5,70.9s21.6-5.3,53.4-13.5c2.1,18,4.2,35,6.2,51.5.7,5.6,1.4,11.1,2,16.5h113.4q-2.1-8.2-3.9-16.5c-6.9-30.7-11.8-59.2-12.5-80.1,76-21.7,150.5-46,149.4-57.6-1.7-17.2-58.8-283.5-73.3-293.9-8.4-6-70.3-27.9-100.7-39.9l-29.5-11.2c-6.5,7.2-50.9,56.2-66.6,241.5-2,23.1,2.1,65.2,6.6,107.3C1557.7,1544.1,1519.3,1553.3,1520.8,1556.8Zm207.3-66.1c4.6-36.9,9.7-74.1,13.5-87.1,0,0,12.8,25.9,11.8,63.8C1753.2,1475.1,1743.5,1482.9,1728.1,1490.7Z" transform="translate(0)"/><path class="cls-6" d="M1653.6,1181.2s-11.5-21.8-8.4-83.7c.9-17.2-90,40.6-90,40.6s.3,6,.5,13.9c.1,3.4.1,7,.1,10.7v8.2c-.1,2-.1,4.1-.3,6s-.2,4.4-.4,6.3a61.2,61.2,0,0,1-3.4,12.2C1547.5,1205,1619.5,1205.5,1653.6,1181.2Z" transform="translate(0)"/><path class="cls-14" d="M1577.3,1220.5l-16.7,22.6s9.8,13.1,27.2,3.4Z" transform="translate(0)"/><path class="cls-14" d="M1565.1,1244s-61.4,149.9-48.3,340.5l19.3,35.1,21.9-29.9s3.5-253,20.9-346.3Z" transform="translate(0)"/><path class="cls-6" d="M1559.4,1199.5l17.9,21s28.8-5.5,37.3-20.6S1559.4,1199.5,1559.4,1199.5Z" transform="translate(0)"/><path class="cls-8" d="M1555.3,1181.2s2.1,16,22,39.3l-21.8,29.3-11.8-60.7Z" transform="translate(0)"/><path class="cls-8" d="M1648.1,1161.9s-41.6,47.1-70.8,58.6l13.6,33.5,66.4-73.3Z" transform="translate(0)"/><path class="cls-5" d="M1220,1588.1s55.3-53.6,91.5-62.5c16.8-4.2,38.9-27.3,59.8-54.5,6.9-9,13.7-18.4,20.2-27.7h0c25.7-37.2,45.9-72.8,45.9-72.8s76.1-89.1,15-128.9c0,0-26.1-.5-40.5,7.3s-46.2,73.7-51.6,85.3-63.1,119.6-67,122.1-10.3,11.3-33.4,23.7c-28.3,15.3-72.8,59.9-72.8,59.9Z" transform="translate(0)"/><path class="cls-15" d="M1485.3,1650.1s7.8-.3,11.1-2.1c0,0,5.7-3.7,10-6.1l3.4-1.7c3.4-1.3,11.3-3.3,18.5-8.8s31-27.7,31-27.7l-15.3-23.6-7.1-23.3s-55.2,5.5-62.6,9.9l-2,1.4c-5.9,4.3-8.5,10-11.3,12.6-1,.9-10.7,11.2-10.1,15.4.7,5.8,3.6,9.5,7.2,11.3,0,0,1.9,11.3,7.8,16.3,0,0,1.4,10.5,10.5,14.7C1476.4,1638.4,1479.1,1648.9,1485.3,1650.1Z" transform="translate(0)"/><path class="cls-3" d="M1573.3,937.8s-99.9-24.1-78.8,102.4,45,136.7,105.8,111.5,56.6-106.1,60.2-145.7S1605.2,939.7,1573.3,937.8Z" transform="translate(0)"/><path class="cls-3" d="M1625.8,1025.4c1.4-11.1,23.5-14.9,25,1.8s-10.6,45.8-19,42.8S1623.7,1040.7,1625.8,1025.4Z" transform="translate(0)"/><path class="cls-9" d="M1654.7,1070.6s-2-39.7-16.5-41.2-17,14.5-17,14.5l-14.7,2.6s5.2-34.8-9.2-41.1-94.2,17.8-105.7,7.4-4.9-80.9,16.2-90.3,79.6-30.1,121.8-.7c0,0,33.2-3.3,37.7,23.6S1664,1050.9,1654.7,1070.6Z" transform="translate(0)"/><path class="cls-5" d="M1518.1,1556.8l41.2,70.9s109.2-28.1,134.7-35.3l-58.2-69.4S1549.9,1542.7,1518.1,1556.8Z" transform="translate(0)"/><path class="cls-10" d="M1555.5,1176.9h.1c53.5-5.4,74.3-46.7,74.3-46.7-33.7,33.4-74.1,32.5-74.1,32.5v8.2C1555.7,1172.9,1555.7,1175,1555.5,1176.9Z" transform="translate(0)"/><polygon class="cls-16" points="1477.5 1401.6 1506.6 1672.4 1123.2 1672.4 1094 1401.6 1477.5 1401.6"/><rect class="cls-16" x="1473.1" y="1648.1" width="64" height="24.37"/><rect class="cls-17" x="763.1" y="1671.9" width="1042.1" height="16.5"/><path class="cls-18" d="M1321.6,1532.7c3.1,15.1-4,29.2-15.7,31.6s-23.8-7.8-26.9-22.9,4-29.3,15.7-31.7S1318.5,1517.6,1321.6,1532.7Z" transform="translate(0)"/><rect class="cls-19" x="478.8" y="1037.5" width="405.1" height="391.65" rx="30"/><polygon class="cls-20" points="516.4 1384 513.6 1381 586.2 1312.5 659.7 1328.4 729.9 1248.4 791.1 1251.8 838.8 1186.1 842.1 1188.5 793.1 1256 731.7 1252.6 661.2 1332.9 587.4 1317 516.4 1384"/><path class="cls-21" d="M671.1,1328.4a10.9,10.9,0,1,1-13-8.4A10.9,10.9,0,0,1,671.1,1328.4Z" transform="translate(0)"/><path class="cls-20" d="M663.2,1343.4a13,13,0,1,1,9.9-15.4A13,13,0,0,1,663.2,1343.4Zm-4.6-21.4a8.9,8.9,0,1,0,10.5,6.8A8.9,8.9,0,0,0,658.6,1322Z" transform="translate(0)"/><path class="cls-21" d="M741.4,1248.9a10.9,10.9,0,1,1-13-8.4A10.9,10.9,0,0,1,741.4,1248.9Z" transform="translate(0)"/><path class="cls-20" d="M733.5,1263.8a12.9,12.9,0,1,1,9.9-15.4A12.9,12.9,0,0,1,733.5,1263.8Zm-4.6-21.3a8.8,8.8,0,1,0,10.5,6.8A8.8,8.8,0,0,0,728.9,1242.5Z" transform="translate(0)"/><path class="cls-21" d="M802.2,1251.3a10.9,10.9,0,1,1-13-8.4A10.9,10.9,0,0,1,802.2,1251.3Z" transform="translate(0)"/><path class="cls-20" d="M794.3,1266.3a13,13,0,1,1,9.9-15.4A13,13,0,0,1,794.3,1266.3Zm-4.7-21.4a8.9,8.9,0,1,0,10.6,6.8A9,9,0,0,0,789.6,1244.9Z" transform="translate(0)"/><path class="cls-21" d="M597.4,1313.4a10.9,10.9,0,1,1-13-8.3A11,11,0,0,1,597.4,1313.4Z" transform="translate(0)"/><path class="cls-20" d="M589.5,1328.4a12.9,12.9,0,1,1,9.9-15.4A12.9,12.9,0,0,1,589.5,1328.4Zm-4.6-21.3a8.9,8.9,0,0,0-6.8,10.5,8.8,8.8,0,1,0,6.8-10.5Z" transform="translate(0)"/><rect class="cls-1" x="575.8" y="1356.3" width="44.7" height="8.6"/><rect class="cls-1" x="606.9" y="1268" width="44.7" height="8.6"/><rect class="cls-1" x="699.6" y="1329.6" width="44.7" height="8.6"/><rect class="cls-1" x="739.6" y="1208.8" width="44.7" height="8.6"/><rect class="cls-1" x="804.5" y="1280.7" width="44.7" height="8.6"/><rect class="cls-22" x="508.6" y="1067.4" width="159.1" height="15.61"/><rect class="cls-1" x="508.6" y="1109.5" width="159.1" height="15.61"/><rect class="cls-1" x="508.6" y="1151.5" width="159.1" height="15.61"/><rect class="cls-22" x="700.2" y="1067.4" width="26.6" height="15.61"/><rect class="cls-1" x="700.2" y="1109.5" width="26.6" height="15.61"/><rect class="cls-1" x="700.2" y="1151.5" width="26.6" height="15.61"/><rect class="cls-23" x="510.4" y="1555.6" width="92.4" height="5.49"/><rect class="cls-24" x="522.7" y="1575.4" width="8.1" height="249.55" transform="translate(1053.6 3400.3) rotate(180)"/><rect class="cls-25" x="588.3" y="1554.1" width="64.3" height="7.84"/><rect class="cls-26" x="608.3" y="1487.2" width="24.3" height="73.9"/><rect class="cls-27" x="477.2" y="1561.2" width="356" height="14.19"/><path class="cls-16" d="M408.9,1475.3s-3.9,54.6,6.7,61.2c6.7,4,33.4,17.9,32.6,20.4s-15.1,23.1-15.1,23.1-51.1-33.7-52.8-44.3,2.5-80,9.6-83.2c5.2-2.4,8-.4,14.7,4.5C413.9,1463.9,408.9,1475.3,408.9,1475.3Z" transform="translate(0)"/><path class="cls-28" d="M502.2,1490.9l4.5-1.7s-5.7-13.2-8.1-12.8a48.4,48.4,0,0,0-6.4,1.3Z" transform="translate(0)"/><path class="cls-29" d="M503.2,1493.2c-.6-.4-9.6-17.7-9.6-17.7l-19.3,2.6,10.5,20.5Z" transform="translate(0)"/><path class="cls-30" d="M471.9,1790.9s-1.6,11-1.8,12.7-17.7-1-17.7-1l-1.5-13.2S469.7,1789.3,471.9,1790.9Z" transform="translate(0)"/><path class="cls-31" d="M470.2,1802.2s5.6,6.6,11,9.5,13.8,4.1,16.9,7.1,8.4,11.5-13.9,11.3-33,1.3-35.4-2.3,3.4-26.4,3.4-26.4S457.5,1803.3,470.2,1802.2Z" transform="translate(0)"/><path class="cls-30" d="M584,1791s-1.6,11-1.8,12.7-17.7-1-17.7-1l-1.4-13.2S581.8,1789.4,584,1791Z" transform="translate(0)"/><path class="cls-31" d="M582.4,1802.3s5.6,6.6,10.9,9.5,25.1,5.3,28.3,8.3,6.1,10.9-25.2,10.1c-22.3-.6-33.1,1.3-35.5-2.3s3.5-26.4,3.5-26.4S569.4,1803.6,582.4,1802.3Z" transform="translate(0)"/><path class="cls-31" d="M415.4,1600s63.6,10.8,78,13,92.3,21.7,102.1,27.6c7.7,4.7-4.1,117.7-6.8,160.8H557.9l-2.2-129.3c-36.8.9-63.1-8.6-89.9-4.5s-49.2,9.8-66.3-13C399.5,1654.6,398.9,1605,415.4,1600Z" transform="translate(0)"/><path class="cls-31" d="M478.1,1801.5l-29.9-1.8-2.9-127.6c-15.9.4-21.3-.6-34.2-2.2L387,1613.8c21.2,4.2,89,21.3,98,26.8S480.9,1758.4,478.1,1801.5Z" transform="translate(0)"/><path class="cls-3" d="M444.7,1361.4s23.3-6.4,32.2,11.7,4.9,52.4-6.9,55.7-28.6-.5-33.5-11.8-8.8-27.3-7.6-37.7S438.5,1363.9,444.7,1361.4Z" transform="translate(0)"/><path class="cls-3" d="M463.9,1425.2s-.2,13.7,1.3,16.7-32.5,2.2-32.5,2.2,5.4-16.6,2.3-30.7S463.9,1425.2,463.9,1425.2Z" transform="translate(0)"/><path class="cls-32" d="M433.2,1408.2s1.8,3.7,10.6,3.1,20.4-11.2,24.2-12.1,3.9-3.1,3.9-3.1l2,3.5,3.8.6s-2.6-10.7,3.1-14.4-2.6-34-31.3-26.7c0,0-21.9,4-22.2,16.3S428.9,1401.7,433.2,1408.2Z" transform="translate(0)"/><path class="cls-33" d="M467,1441.5s-.1-5.6-2.7-6.1-26.7-3.9-29.8-2.7l-1.4,7.4S439.2,1443.8,467,1441.5Z" transform="translate(0)"/><path class="cls-3" d="M474,1393.6c-.7-4.6-5.9-9.9-8.9-2.8s2,17.6,5.4,17.1S474.9,1399.8,474,1393.6Z" transform="translate(0)"/><path class="cls-5" d="M568.3,1507.8Z" transform="translate(0)"/><path class="cls-32" d="M437.9,1364.7s-28.5-1.3-5,43.1Z" transform="translate(0)"/><polygon class="cls-34" points="374.5 1816.7 376.6 1822.6 466 1794.9 461.7 1782.8 374.5 1816.7"/><rect class="cls-34" x="458.9" y="1693.4" width="10.2" height="97.22"/><rect class="cls-35" x="434" y="1688.3" width="59.9" height="5.73"/><polygon class="cls-34" points="554.3 1816.7 552.2 1822.6 462.8 1794.9 466.7 1782.1 554.3 1816.7"/><polygon class="cls-34" points="491.3 1822 491.3 1828.9 462.8 1794.9 466.7 1782.1 491.3 1822"/><path class="cls-36" d="M562.7,1824.9a8.4,8.4,0,0,1-8.4,8.4,8.4,8.4,0,1,1,8.4-8.4Z" transform="translate(0)"/><path class="cls-36" d="M492,1824.9a8.3,8.3,0,0,1-8.3,8.4,8.4,8.4,0,1,1,0-16.7A8.3,8.3,0,0,1,492,1824.9Z" transform="translate(0)"/><path class="cls-36" d="M382.8,1824.9a8.3,8.3,0,0,1-8.3,8.4,8.4,8.4,0,1,1,0-16.7A8.3,8.3,0,0,1,382.8,1824.9Z" transform="translate(0)"/><rect class="cls-33" x="393.4" y="1666.6" width="142" height="21.7" rx="10.7"/><rect class="cls-24" x="779.6" y="1575.4" width="8.1" height="249.55"/><rect class="cls-37" x="515.4" y="1374.6" width="210.1" height="148.22" rx="10.7"/><rect class="cls-38" x="523.6" y="1382.6" width="193.6" height="116.98"/><rect class="cls-39" x="523.6" y="1382.6" width="193.6" height="9.31"/><rect class="cls-39" x="529.1" y="1398.9" width="42.6" height="8.66" rx="3.6"/><rect class="cls-39" x="529.1" y="1413.4" width="42.6" height="81.39" rx="7.4"/><path class="cls-40" d="M664,1561.4v-2.7s-3.8-16.4-30-16.4-25.7,19.1-25.7,19.1Z" transform="translate(0)"/><path class="cls-3" d="M608,1544.8s5.7-.5,7.8-1.7,14.6-9.7,17.5-8.3,22.5,7.3,21.8,10.1-2.5,2.6-3.9,2.1-15.5-3.5-16.8-3,13.9,5.1,14,8.8-2.9,4.6-4.2,6-2.9,4.9-6.5,5.2-21.1-5.8-24.7-6.1-10.3.2-10.8-.4S608,1544.8,608,1544.8Z" transform="translate(0)"/><path class="cls-16" d="M504.3,1449.3c-18.2-3.2-37.3-7.8-37.3-7.8l-33.9-1.4s-31,6.9-43.2,12.4c-1.2.5-1.2,27.7-4.4,34.8l10.2,21.4s5.8,42.4,7,61.2c.6,8.7-1.6,83.6-1.6,83.6s3.1,1.5,26.2,4.1,80.8-.9,81.1-3.7-11.1-101.5-11.7-106.6c-.7-7.9,2.3-44.2,2.3-44.2,4.4,5.9,15.5,32.2,27,44.8,6.8,7.4,40.5,11.9,46.8,12.1,13.9.5,39.1,3.2,39.8,1.9s2.2-22.4.6-22.9-48.2-3.2-60.2-9.5c-4.3-2.3-17.5-30.9-17.5-30.9S514.3,1453.8,504.3,1449.3Z" transform="translate(0)"/><rect class="cls-33" x="360.2" y="1515.7" width="97.9" height="135.65" rx="20.6"/><path class="cls-33" d="M440.8,1682.9c-14.4,0-26.1-4.9-34.8-14.4-19.6-21.7-16.1-59.7-15.9-61.3a5.4,5.4,0,0,1,10.8,1.1c0,.4-3.1,34.9,13.2,52.9,6.6,7.2,15.3,10.8,26.7,10.8a5.5,5.5,0,0,1,5.5,5.4A5.5,5.5,0,0,1,440.8,1682.9Z" transform="translate(0)"/><path class="cls-41" d="M580.3,1441.1a39.9,39.9,0,0,0,9.4,25.8,39.2,39.2,0,0,0,4.5,4.6l1.4,1.1a10.9,10.9,0,0,0,1.7,1.3,39.7,39.7,0,0,0,18.2,7l3.6.3h5.2l4.2-.7a39.6,39.6,0,0,0,16.4-7.4,45.9,45.9,0,0,0,4.1-3.6l.7-.8a24.8,24.8,0,0,0,2.5-3,39.5,39.5,0,0,0,8.4-24.5,40.2,40.2,0,1,0-80.3,0Z" transform="translate(0)"/><path class="cls-42" d="M594.3,1463.2l3,10.7a39.7,39.7,0,0,0,18.2,7l3.6.3h5.2l4.2-.7a39.6,39.6,0,0,0,16.4-7.4c.6-3.6,1.2-7.5,1.7-11.1-2.9-1.1-12.3-4.3-18.3-6.3h-.6l-1-.3-.9-.4-2.4-.8h-.2l-8,.6h-1.9l-3.7,1h0C604.8,1457.2,597.2,1459.9,594.3,1463.2Z" transform="translate(0)"/><path class="cls-6" d="M618.4,1421.1s-9.6,1.7-8,16.6,10.1,13.7,10.7,13.7,8.4.1,8.9-18.2C630,1433.2,630.1,1419.7,618.4,1421.1Z" transform="translate(0)"/><path class="cls-6" d="M614.2,1447s.3,6.2-.3,7.5,7.7,5.6,12.8.8c0,0-1-6.8-.7-9.1S614.2,1447,614.2,1447Z" transform="translate(0)"/><path class="cls-6" d="M610.2,1433.5s-1-1.1-1.4,0,1.7,6.2,1.6,6.4.2.5.4.2S610.2,1433.5,610.2,1433.5Z" transform="translate(0)"/><path class="cls-6" d="M629.9,1433.1s1-1.2,1.4,0-1.1,6.1-1.3,6.4-.3.6-.6.3S629.9,1433.1,629.9,1433.1Z" transform="translate(0)"/><path class="cls-14" d="M609.6,1432.2l.7,3.6,1.4,1.8a37.4,37.4,0,0,1,.1-4.6,10.4,10.4,0,0,0,.3-1.2,14.9,14.9,0,0,1,.4-1.9c.2-.4,8.2-2.8,15.3.5v1.3c0,.8.1,1.7.4,1.9s.4,4.7.4,4.7l1.1-1.3s.4-2.3.7-5h0c.1-.6.1-1.3.2-1.9.2-2.7-.1-7.6-3.6-10.5-2.4-1-6.1-1.8-12.4.1,0,0-1.5.1-1.9.5C608.8,1424.5,609.6,1432.2,609.6,1432.2Z" transform="translate(0)"/><path class="cls-43" d="M625.4,1449.4a6.3,6.3,0,0,1-5.1,2c-3.6-.1-5.1-1.9-5.1-1.9s1.7,3.5,5.1,3.4S625.4,1449.4,625.4,1449.4Z" transform="translate(0)"/><path class="cls-6" d="M627.7,1455.4s-2.6,4.5-7.4,4.9c-3.1.2-5.8-3.7-7-5.6A18.9,18.9,0,0,1,627.7,1455.4Z" transform="translate(0)"/><path class="cls-44" d="M614.2,1453.3a24.2,24.2,0,0,0,6.1,5.3l-2.6,4-4.4-7.9Z" transform="translate(0)"/><path class="cls-44" d="M626.5,1453.9a17.1,17.1,0,0,1-6.2,4.7l2.8,4.1,5-7.2Z" transform="translate(0)"/><path class="cls-45" d="M620.3,1458.6l-2.2,3.4a4.6,4.6,0,0,0,4.5-.1Z" transform="translate(0)"/><path class="cls-5" d="M591.7,1462.6v.2c.2.9,1.2,4.2,2.4,8.7l1.4,1.1a10.9,10.9,0,0,0,1.7,1.3,39.7,39.7,0,0,0,18.2,7c-.6-13.9-2.2-26.2-2.2-26.2l-3.7,1h0c-10.2,3-15.4,5.5-17.2,6.5h0Z" transform="translate(0)"/><path class="cls-5" d="M628.5,1480.4a39.6,39.6,0,0,0,16.4-7.4,45.9,45.9,0,0,0,4.1-3.6l.7-.8c.7-3,1.2-4.9,1.2-5h0s-5-3.3-22.6-8h0C628.3,1456,628.3,1467.3,628.5,1480.4Z" transform="translate(0)"/><path class="cls-45" d="M619,1462.4c.2,3.6.2,10.7.1,18.8h5.2a126.7,126.7,0,0,0-2.7-18.8l-.3-1.2-2.3.4Z" transform="translate(0)"/><path class="cls-5" d="M589.7,1466.9a39.2,39.2,0,0,0,4.5,4.6l1.4,1.1-3.2-10.4h0l-.6.6A29.9,29.9,0,0,0,589.7,1466.9Z" transform="translate(0)"/><path class="cls-5" d="M649,1469.4l.7-.8a24.8,24.8,0,0,0,2.5-3,4.2,4.2,0,0,0-1.3-2h0Z" transform="translate(0)"/><path class="cls-1" d="M1745.5,979.7l-.2-2c-.4-4,.9-8.4,4.7-12.9s5.2-6.8,5.2-10.2-2.4-6.3-7.1-6.4a13.1,13.1,0,0,0-7.5,2.3l-1.8-4.7c2.4-1.8,6.7-3,10.6-3,8.6,0,12.5,5.3,12.5,11s-2.8,8.7-6.4,13-4.5,7.1-4.3,10.9v2Zm-1.7,10.4a4.5,4.5,0,0,1,4.5-4.7,4.4,4.4,0,0,1,4.4,4.7,4.5,4.5,0,1,1-8.9,0Z" transform="translate(0)"/></svg>